<?xml version="1.0" encoding="UTF-8" standalone="no"?>
<svg
   viewBox="0 0 16 16"
   version="1.1"
   id="svg11"
   xmlns="http://www.w3.org/2000/svg"
   xmlns:svg="http://www.w3.org/2000/svg">
  <path style="opacity:0.20;fill:#222528;" d="M 8,2 V 8 L 9.6074219,2 Z" />
  <path style="opacity:0.22;fill:#222528;" d="M 9.6074219,2 8,8 11.464844,2 Z" />
  <path style="opacity:0.24;fill:#222528;" d="M 11.464844,2 8,8 14,2 Z" />
  <path style="opacity:0.26;fill:#222528;" d="m 14.000025,4.5351511 -6,3.464844 6,-6.0000001 z" />
  <path style="opacity:0.28;fill:#222528;" d="m 14.000025,6.392573 -6,1.6074221 6,-3.464844 z" />
  <path style="opacity:0.30;fill:#222528;" d="m 14.000005,6.3925731 -6,1.6074219 h 6 z" />
  <path style="opacity:0.33;fill:#222528;" d="m 14.000005,7.999995 h -6 l 6,1.6074219 z" />
  <path style="opacity:0.35;fill:#222528;" d="m 14.000005,9.6074169 -6,-1.6074219 6,3.464844 z" />
  <path style="opacity:0.38;fill:#222528;" d="m 14.000005,11.464839 -6,-3.464844 6,6 z" />
  <path style="opacity:0.41;fill:#222528;" d="M 11.464854,14 8.00001,8 l 6,6 z" />
  <path style="opacity:0.44;fill:#222528;" d="M 9.6074319,14 8.00001,8 l 3.464844,6 z" />
  <path style="opacity:0.46;fill:#222528;" d="M 8.00001,14 V 8 l 1.6074219,6 z" />
  <path style="opacity:0.48;fill:#222528;" d="M 6.3925881,14 8.00001,8 v 6 z" />
  <path style="opacity:0.50;fill:#222528;" d="m 6.392588,14.00002 1.6074221,-6 -3.464844,6 z" />
  <path style="opacity:0.52;fill:#222528;" d="m 4.5351661,14.00002 3.464844,-6 -6.0000001,6 z" />
  <path style="opacity:0.54;fill:#222528;" d="m 2.000005,11.464849 6,-3.464844 -6,6 z" />
  <path style="opacity:0.56;fill:#222528;" d="m 2.000005,9.6074269 6,-1.6074219 -6,3.464844 z" />
  <path style="opacity:0.58;fill:#222528;" d="m 2.000005,8.000005 h 6 l -6,1.6074219 z" />
  <path style="opacity:0.60;fill:#222528;" d="m 2.000005,6.3925831 6,1.6074219 h -6 z" />
  <path style="opacity:0.62;fill:#222528;" d="m 1.999985,6.392583 6,1.6074221 -6,-3.464844 z" />
  <path style="opacity:0.64;fill:#222528;" d="m 1.999985,4.5351611 6,3.464844 -6,-6.0000001 z" />
  <path style="opacity:0.66;fill:#222528;" d="m 4.5351561,1.99998 3.464844,6 L 2,1.99998 Z" />
  <path style="opacity:0.68;fill:#222528;" d="m 6.392578,1.99998 1.6074221,6 -3.464844,-6 z" />
  <path style="opacity:0.70;fill:#222528;" d="M 6.3925781,2 8,8 V 2 Z" />
</svg>
