<?xml version="1.0" encoding="UTF-8" standalone="no"?>
<svg
   xmlns:dc="http://purl.org/dc/elements/1.1/"
   xmlns:cc="http://creativecommons.org/ns#"
   xmlns:rdf="http://www.w3.org/1999/02/22-rdf-syntax-ns#"
   xmlns:svg="http://www.w3.org/2000/svg"
   xmlns="http://www.w3.org/2000/svg"
   xmlns:sodipodi="http://sodipodi.sourceforge.net/DTD/sodipodi-0.dtd"
   xmlns:inkscape="http://www.inkscape.org/namespaces/inkscape"
   width="512"
   height="512"
   viewBox="0 0 512 512"
   version="1.1"
   id="svg4575"
   inkscape:version="1.0.2 (e86c870879, 2021-01-15)"
   sodipodi:docname="file-icon.svg">
  <defs
     id="defs4569" />
  <sodipodi:namedview
     id="base"
     pagecolor="#ffffff"
     bordercolor="#666666"
     borderopacity="1.0"
     inkscape:pageopacity="0.0"
     inkscape:pageshadow="2"
     inkscape:zoom="0.35"
     inkscape:cx="-121.42857"
     inkscape:cy="560"
     inkscape:document-units="px"
     inkscape:current-layer="layer1"
     showgrid="false"
     units="px"
     inkscape:pagecheckerboard="true"
     inkscape:window-width="2408"
     inkscape:window-height="1411"
     inkscape:window-x="30"
     inkscape:window-y="0"
     inkscape:window-maximized="1"
     inkscape:document-rotation="0"
     borderlayer="true" />
  <metadata
     id="metadata4572">
    <rdf:RDF>
      <cc:Work
         rdf:about="">
        <dc:format>image/svg+xml</dc:format>
        <dc:type
           rdf:resource="http://purl.org/dc/dcmitype/StillImage" />
        <dc:title />
      </cc:Work>
    </rdf:RDF>
  </metadata>
  <g
     inkscape:label="ref"
     inkscape:groupmode="layer"
     id="layer1"
     transform="translate(0,-161.53332)">
    <path
       id="rect1591"
       style="fill:#ffffff;stroke:#000000;stroke-width:19.6923;stroke-linecap:round;stroke-linejoin:round;stroke-miterlimit:4;stroke-dasharray:none"
       d="M 91.076915,171.37949 H 420.9231 c 10.9095,0 19.6923,8.78277 19.6923,19.69231 v 349.53845 c 0,10.9095 -112.16741,123.0769 -123.07695,123.0769 H 91.076915 c -10.90954,0 -19.69231,-8.7827 -19.69231,-19.6923 V 191.0718 c 0,-10.90954 8.78277,-19.69231 19.69231,-19.69231 z"
       sodipodi:nodetypes="sssssssss" />
    <path
       id="path971-7"
       style="fill:#c4d9f5;stroke:#3250b0;stroke-width:19.6923;stroke-linecap:round;stroke-linejoin:round;stroke-miterlimit:4;stroke-dasharray:none"
       d="m 354.46339,351.16585 v 0 c 0,-49.3595 24.6579,-95.45631 65.7718,-122.85614 -57.737,3.1394 -108.36803,39.74937 -129.37248,93.86414 -11.11611,2.9358 -22.82024,4.3766 -34.86085,4.3767 -12.04062,0 -23.74474,-1.4408 -34.86085,-4.3766 -21.00446,-54.11483 -71.63545,-90.72479 -129.372495,-93.86419 41.113935,27.39983 65.771805,73.49659 65.771805,122.85619 v 0 c 0,25.3774 -6.53903,50.3266 -19.25563,72.2684 42.55158,27.1202 68.31266,74.0874 68.31266,124.5467 v 0 c -4e-5,3.416 -0.11864,6.8309 -0.39089,10.7389 14.41029,13.522 31.28552,23.5625 49.62171,30.0453 18.3362,-6.4828 35.21142,-16.5233 49.62171,-30.0453 -0.27224,-3.908 -0.39089,-7.3229 -0.39089,-10.7389 v 0 c 0,-50.4593 25.76108,-97.4265 68.4864,-124.5467 -12.543,-21.9418 -19.082,-46.8911 -19.082,-72.2685 z"
       sodipodi:nodetypes="ssccsccsscsscccsscs" />
    <path
       style="fill:none;stroke:#f01d0a;stroke-width:19.6923;stroke-linecap:round;stroke-linejoin:round;stroke-miterlimit:4;stroke-dasharray:none"
       d="m 216.43706,384.04965 v 39.3846"
       id="path1244-3-61"
       sodipodi:nodetypes="cc" />
    <path
       style="fill:none;stroke:#f01d0a;stroke-width:19.6923;stroke-linecap:round;stroke-linejoin:round;stroke-miterlimit:4;stroke-dasharray:none"
       d="m 295.56666,384.04965 v 39.3846"
       id="path1244-5-8"
       sodipodi:nodetypes="cc" />
    <circle
       style="fill:#3250b0;stroke:none;stroke-width:19.6923;stroke-linecap:round;stroke-linejoin:round;stroke-miterlimit:4;stroke-dasharray:none"
       id="circle1152-5-9"
       cx="236.13596"
       cy="529.68817"
       r="9.8461542" />
    <circle
       style="fill:#3250b0;stroke:none;stroke-width:19.6923;stroke-linecap:round;stroke-linejoin:round;stroke-miterlimit:4;stroke-dasharray:none"
       id="circle1154-6-20"
       cx="275.52054"
       cy="529.68817"
       r="9.8461542" />
    <path
       id="rect1593"
       style="fill:#ffffff;stroke:#000000;stroke-width:19.6923;stroke-linecap:round;stroke-linejoin:round;stroke-miterlimit:4;stroke-dasharray:none"
       d="m 337.23076,540.61025 h 103.38463 c 0,10.9095 -112.1674,123.0769 -123.07694,123.0769 v -103.3846 c 0,-10.9095 8.78277,-19.6923 19.69231,-19.6923 z"
       sodipodi:nodetypes="sssss" />
  </g>
</svg>
