<?xml version="1.0" encoding="UTF-8" standalone="no"?>
<svg
   xmlns:dc="http://purl.org/dc/elements/1.1/"
   xmlns:cc="http://creativecommons.org/ns#"
   xmlns:rdf="http://www.w3.org/1999/02/22-rdf-syntax-ns#"
   xmlns:svg="http://www.w3.org/2000/svg"
   xmlns="http://www.w3.org/2000/svg"
   xmlns:sodipodi="http://sodipodi.sourceforge.net/DTD/sodipodi-0.dtd"
   xmlns:inkscape="http://www.inkscape.org/namespaces/inkscape"
   width="512"
   height="512"
   viewBox="0 0 512 512"
   version="1.1"
   id="svg4575"
   inkscape:version="1.0.2 (e86c870879, 2021-01-15)"
   sodipodi:docname="logo_parts.svg">
  <defs
     id="defs4569" />
  <sodipodi:namedview
     id="base"
     pagecolor="#ffffff"
     bordercolor="#666666"
     borderopacity="1.0"
     inkscape:pageopacity="0.0"
     inkscape:pageshadow="2"
     inkscape:zoom="1.979899"
     inkscape:cx="256.72609"
     inkscape:cy="210.01041"
     inkscape:document-units="px"
     inkscape:current-layer="layer1"
     showgrid="false"
     units="px"
     inkscape:pagecheckerboard="true"
     inkscape:window-width="2408"
     inkscape:window-height="1411"
     inkscape:window-x="30"
     inkscape:window-y="0"
     inkscape:window-maximized="1"
     inkscape:document-rotation="0"
     borderlayer="true"
     inkscape:snap-smooth-nodes="true"
     inkscape:snap-global="true"
     inkscape:object-paths="false"
     inkscape:snap-midpoints="false"
     inkscape:snap-intersection-paths="false"
     inkscape:snap-object-midpoints="true"
     inkscape:snap-grids="false"
     inkscape:snap-bbox="true"
     inkscape:bbox-nodes="true"
     inkscape:snap-others="false">
    <inkscape:grid
       type="xygrid"
       id="grid830"
       spacingx="5"
       spacingy="5" />
  </sodipodi:namedview>
  <metadata
     id="metadata4572">
    <rdf:RDF>
      <cc:Work
         rdf:about="">
        <dc:format>image/svg+xml</dc:format>
        <dc:type
           rdf:resource="http://purl.org/dc/dcmitype/StillImage" />
        <dc:title />
      </cc:Work>
    </rdf:RDF>
  </metadata>
  <g
     inkscape:label="ref"
     inkscape:groupmode="layer"
     id="layer1"
     transform="translate(0,-161.53332)">
    <rect
       style="fill:#ffffff;stroke:none;stroke-width:3.97721;stroke-linecap:round;stroke-linejoin:round;paint-order:stroke fill markers"
       id="rect989"
       width="92.730621"
       height="92.730621"
       x="389.95758"
       y="557.87982"
       inkscape:export-filename="/tmp/rect989.png"
       inkscape:export-xdpi="578.26001"
       inkscape:export-ydpi="578.26001" />
    <circle
       style="fill:#c4d9f5;stroke:none;stroke-width:4;stroke-linecap:round;stroke-linejoin:round;paint-order:stroke fill markers"
       id="path959"
       cx="343.59225"
       cy="604.24512"
       r="46.365311" />
    <path
       id="path971-2"
       style="fill:none;stroke:#3250b0;stroke-width:4;stroke-linecap:round;stroke-linejoin:round;stroke-miterlimit:4;stroke-dasharray:none"
       d="m 145,326.55201 v 0 c 0,-10.02616 5.00863,-19.38957 13.3599,-24.95516 -11.72784,0.63769 -22.01226,8.07409 -26.27879,19.06616 -2.25796,0.59633 -4.63536,0.889 -7.08111,0.88901 -2.44575,0 -4.82315,-0.29267 -7.08111,-0.889 C 113.65236,309.67095 103.36794,302.23455 91.640096,301.59686 99.99137,307.16245 105,316.52586 105,326.55202 v 0 c 0,5.15478 -1.32824,10.2226 -3.9113,14.67952 8.64329,5.50879 13.87601,15.04901 13.87601,25.29856 v 0 c -1e-5,0.69386 -0.0241,1.38752 -0.0794,2.18133 2.92709,2.74666 6.35487,4.78613 10.07941,6.10295 3.72454,-1.31682 7.15232,-3.35629 10.07941,-6.10295 -0.0553,-0.79381 -0.0794,-1.48747 -0.0794,-2.18133 v 0 c 0,-10.24955 5.23272,-19.78977 13.91129,-25.29856 C 146.32824,336.77461 145,331.70679 145,326.55201 Z"
       sodipodi:nodetypes="ssccsccsscsscccsscs" />
    <circle
       style="fill:#3250b0;stroke:none;stroke-width:4;stroke-linecap:round;stroke-linejoin:round;stroke-miterlimit:4;stroke-dasharray:none"
       id="circle1152-5-3"
       cx="120.96471"
       cy="362.81439"
       r="2" />
    <circle
       style="fill:#3250b0;stroke:none;stroke-width:4;stroke-linecap:round;stroke-linejoin:round;stroke-miterlimit:4;stroke-dasharray:none"
       id="circle1154-6-7"
       cx="128.96471"
       cy="362.81439"
       r="2" />
    <path
       id="path1035"
       style="fill:none;stroke:#000000;stroke-width:4;stroke-linecap:round;stroke-linejoin:round;stroke-miterlimit:4;stroke-dasharray:none"
       d="m 418.33795,204.13637 v 0 c 0,-10.02616 5.00863,-19.38957 13.3599,-24.95516 -11.72784,0.63769 -22.01226,8.07409 -26.27879,19.06616 -2.25796,0.59633 -4.63536,0.889 -7.08111,0.88901 -2.44575,0 -4.82315,-0.29267 -7.08111,-0.889 -4.26653,-10.99207 -14.55095,-18.42847 -26.27879,-19.06616 8.35127,5.56559 13.3599,14.929 13.3599,24.95516 v 0 c 0,5.15478 -1.32824,10.2226 -3.9113,14.67952 8.64329,5.50879 13.87601,15.04901 13.87601,25.29856 v 0 c -10e-6,0.69386 -0.0241,1.38752 -0.0794,2.18133 2.92709,2.74666 6.35487,4.78613 10.07941,6.10295 3.72454,-1.31682 7.15232,-3.35629 10.07941,-6.10295 -0.0553,-0.79381 -0.0794,-1.48747 -0.0794,-2.18133 v 0 c 0,-10.24955 5.23272,-19.78977 13.91129,-25.29856 -2.54778,-4.45693 -3.87602,-9.52475 -3.87602,-14.67953 z"
       sodipodi:nodetypes="ssccsccsscsscccsscs" />
    <path
       id="path1033"
       style="fill:#000000;stroke:#000000;stroke-width:4;stroke-linecap:round;stroke-linejoin:round;stroke-miterlimit:4;stroke-dasharray:none"
       d="m 322.40256,204.13637 v 0 c 0,-10.02616 5.00863,-19.38957 13.3599,-24.95516 -11.72784,0.63769 -22.01226,8.07409 -26.27879,19.06616 -2.25796,0.59633 -4.63536,0.889 -7.08111,0.88901 -2.44575,0 -4.82315,-0.29267 -7.08111,-0.889 -4.26653,-10.99207 -14.55095,-18.42847 -26.27879,-19.06616 8.35127,5.56559 13.3599,14.929 13.3599,24.95516 v 0 c 0,5.15478 -1.32824,10.2226 -3.9113,14.67952 8.64329,5.50879 13.87601,15.04901 13.87601,25.29856 v 0 c -1e-5,0.69386 -0.0241,1.38752 -0.0794,2.18133 2.92709,2.74666 6.35487,4.78613 10.07941,6.10295 3.72454,-1.31682 7.15232,-3.35629 10.07941,-6.10295 -0.0553,-0.79381 -0.0794,-1.48747 -0.0794,-2.18133 v 0 c 0,-10.24955 5.23272,-19.78977 13.91129,-25.29856 -2.54778,-4.45693 -3.87602,-9.52475 -3.87602,-14.67953 z"
       sodipodi:nodetypes="ssccsccsscsscccsscs" />
    <rect
       style="fill:#c4d9f5;stroke:none;stroke-width:4;stroke-linecap:round;stroke-linejoin:round;stroke-miterlimit:4;stroke-dasharray:none"
       id="rect1146"
       width="85"
       height="85"
       x="252.5"
       y="286.53333"
       rx="4"
       ry="4"
       inkscape:export-filename="/tmp/logo1.png"
       inkscape:export-xdpi="4626.0708"
       inkscape:export-ydpi="4626.0708" />
    <path
       style="fill:none;stroke:#f01d0a;stroke-width:4;stroke-linecap:round;stroke-linejoin:round;stroke-miterlimit:4;stroke-dasharray:none"
       d="m 116.9634,333.23153 v 8"
       id="path1148"
       sodipodi:nodetypes="cc" />
    <path
       style="fill:#3a3c3f;stroke:#a0a0a0;stroke-width:1;stroke-linecap:round;stroke-linejoin:round;stroke-miterlimit:4;stroke-dasharray:none"
       d="m 101.0887,341.23154 h 17.02192"
       id="path1166" />
    <path
       style="fill:#3a3c3f;stroke:#a0a0a0;stroke-width:1;stroke-linecap:round;stroke-linejoin:round;stroke-miterlimit:4;stroke-dasharray:none"
       d="M 114.9634,368.02592 V 328.01429"
       id="path1164" />
    <circle
       style="fill:none;stroke:#000000;stroke-linecap:round;stroke-linejoin:round"
       id="circle866"
       cx="85"
       cy="366.53333"
       r="30" />
    <circle
       style="fill:#a0a0a0;stroke:none;stroke-width:4;stroke-linecap:round;stroke-linejoin:round;stroke-miterlimit:4;stroke-dasharray:none"
       id="circle1178"
       cx="124.96472"
       cy="374.81439"
       r="2" />
    <circle
       style="fill:none;stroke:#000000;stroke-linecap:round;stroke-linejoin:round"
       id="circle890"
       cx="135"
       cy="346.53333"
       r="30" />
    <circle
       style="fill:none;stroke:#000000;stroke-linecap:round;stroke-linejoin:round"
       id="circle892"
       cx="75"
       cy="326.53333"
       r="30" />
    <circle
       style="fill:none;stroke:#000000;stroke-linecap:round;stroke-linejoin:round"
       id="circle894"
       cx="90"
       cy="331.53333"
       r="30" />
    <circle
       style="fill:#a0a0a0;stroke:none;stroke-width:4;stroke-linecap:round;stroke-linejoin:round;stroke-miterlimit:4;stroke-dasharray:none"
       id="circle1180"
       cx="124.96472"
       cy="370.81439"
       r="2" />
    <circle
       style="fill:#a0a0a0;stroke:none;stroke-width:4;stroke-linecap:round;stroke-linejoin:round;stroke-miterlimit:4;stroke-dasharray:none"
       id="circle1182"
       cx="124.96472"
       cy="366.81439"
       r="2" />
    <circle
       style="fill:#a0a0a0;stroke:none;stroke-width:4;stroke-linecap:round;stroke-linejoin:round;stroke-miterlimit:4;stroke-dasharray:none"
       id="circle1174"
       cx="124.96472"
       cy="362.81439"
       r="2" />
    <path
       style="fill:#3250b0;stroke:#000000;stroke-linecap:round;stroke-linejoin:round"
       d="m 125,386.53331 v -85"
       id="path896" />
    <circle
       style="fill:none;stroke:#000000;stroke-linecap:round;stroke-linejoin:round"
       id="circle916"
       cx="125"
       cy="291.53333"
       r="30" />
    <path
       style="fill:none;stroke:#f01d0a;stroke-width:4;stroke-linecap:round;stroke-linejoin:round;stroke-miterlimit:4;stroke-dasharray:none"
       d="m 133.0366,333.23153 v 8"
       id="path1244"
       sodipodi:nodetypes="cc" />
    <circle
       style="fill:#a0a0a0;stroke:none;stroke-width:4;stroke-linecap:round;stroke-linejoin:round;stroke-miterlimit:4;stroke-dasharray:none"
       id="circle1168"
       cx="133.03659"
       cy="341.23154"
       r="2" />
    <circle
       style="fill:#a0a0a0;stroke:none;stroke-width:4;stroke-linecap:round;stroke-linejoin:round;stroke-miterlimit:4;stroke-dasharray:none"
       id="circle1170"
       cx="133.03659"
       cy="333.23154"
       r="2" />
    <circle
       style="fill:#a0a0a0;stroke:none;stroke-width:4;stroke-linecap:round;stroke-linejoin:round;stroke-miterlimit:4;stroke-dasharray:none"
       id="circle1172"
       cx="133.03659"
       cy="337.23154"
       r="2" />
    <path
       id="path971"
       style="fill:#c4d9f5;stroke:#3250b0;stroke-width:4;stroke-linecap:round;stroke-linejoin:round;stroke-miterlimit:4;stroke-dasharray:none"
       d="m 315,316.53331 v 0 c 0,-10.02616 5.00863,-19.38957 13.3599,-24.95516 -11.72784,0.63769 -22.01226,8.07409 -26.27879,19.06616 -2.25796,0.59633 -4.63536,0.889 -7.08111,0.88901 -2.44575,0 -4.82315,-0.29267 -7.08111,-0.889 -4.26653,-10.99207 -14.55095,-18.42847 -26.27879,-19.06616 8.35127,5.56559 13.3599,14.929 13.3599,24.95516 v 0 c 0,5.15478 -1.32824,10.2226 -3.9113,14.67952 8.64329,5.50879 13.87601,15.04901 13.87601,25.29856 v 0 c -1e-5,0.69386 -0.0241,1.38752 -0.0794,2.18133 2.92709,2.74666 6.35487,4.78613 10.07941,6.10295 3.72454,-1.31682 7.15232,-3.35629 10.07941,-6.10295 -0.0553,-0.79381 -0.0794,-1.48747 -0.0794,-2.18133 v 0 c 0,-10.24955 5.23272,-19.78977 13.91129,-25.29856 C 316.32824,326.75591 315,321.68809 315,316.53331 Z"
       sodipodi:nodetypes="ssccsccsscsscccsscs" />
    <path
       style="fill:none;stroke:#f01d0a;stroke-width:4;stroke-linecap:round;stroke-linejoin:round;stroke-miterlimit:4;stroke-dasharray:none"
       d="m 286.9634,323.21283 v 8"
       id="path1244-3"
       sodipodi:nodetypes="cc" />
    <path
       style="fill:none;stroke:#f01d0a;stroke-width:4;stroke-linecap:round;stroke-linejoin:round;stroke-miterlimit:4;stroke-dasharray:none"
       d="m 303.0366,323.21282 v 8"
       id="path1244-5"
       sodipodi:nodetypes="cc" />
    <circle
       style="fill:#a0a0a0;stroke:none;stroke-width:6.25;stroke-linecap:round;stroke-linejoin:round;stroke-miterlimit:4;stroke-dasharray:none"
       id="path1045-9"
       cx="62.5"
       cy="401.53333"
       r="2.5" />
    <circle
       style="fill:#a0a0a0;stroke:none;stroke-width:6.25;stroke-linecap:round;stroke-linejoin:round;stroke-miterlimit:4;stroke-dasharray:none"
       id="circle1387"
       cx="57.5"
       cy="401.53333"
       r="2.5" />
    <circle
       style="fill:#a0a0a0;stroke:none;stroke-width:6.25;stroke-linecap:round;stroke-linejoin:round;stroke-miterlimit:4;stroke-dasharray:none"
       id="circle1389"
       cx="72.5"
       cy="401.53333"
       r="2.5" />
    <circle
       style="fill:#a0a0a0;stroke:none;stroke-width:6.25;stroke-linecap:round;stroke-linejoin:round;stroke-miterlimit:4;stroke-dasharray:none"
       id="circle1391"
       cx="67.5"
       cy="401.53333"
       r="2.5" />
    <circle
       style="fill:#a0a0a0;stroke:none;stroke-width:6.25;stroke-linecap:round;stroke-linejoin:round;stroke-miterlimit:4;stroke-dasharray:none"
       id="circle1393"
       cx="82.5"
       cy="401.53333"
       r="2.5" />
    <circle
       style="fill:#a0a0a0;stroke:none;stroke-width:6.25;stroke-linecap:round;stroke-linejoin:round;stroke-miterlimit:4;stroke-dasharray:none"
       id="circle1395"
       cx="77.5"
       cy="401.53333"
       r="2.5" />
    <circle
       style="fill:#a0a0a0;stroke:none;stroke-width:6.25;stroke-linecap:round;stroke-linejoin:round;stroke-miterlimit:4;stroke-dasharray:none"
       id="circle1397"
       cx="92.5"
       cy="401.53333"
       r="2.5" />
    <circle
       style="fill:#a0a0a0;stroke:none;stroke-width:6.25;stroke-linecap:round;stroke-linejoin:round;stroke-miterlimit:4;stroke-dasharray:none"
       id="circle1399"
       cx="87.5"
       cy="401.53333"
       r="2.5" />
    <circle
       style="fill:#a0a0a0;stroke:none;stroke-width:6.25;stroke-linecap:round;stroke-linejoin:round;stroke-miterlimit:4;stroke-dasharray:none"
       id="circle1401"
       cx="97.5"
       cy="401.53333"
       r="2.5" />
    <circle
       style="fill:#a0a0a0;stroke:none;stroke-width:6.25;stroke-linecap:round;stroke-linejoin:round;stroke-miterlimit:4;stroke-dasharray:none"
       id="circle1403"
       cx="102.5"
       cy="401.53333"
       r="2.5" />
    <circle
       style="fill:#a0a0a0;stroke:none;stroke-width:6.25;stroke-linecap:round;stroke-linejoin:round;stroke-miterlimit:4;stroke-dasharray:none"
       id="circle1405"
       cx="107.5"
       cy="401.53333"
       r="2.5" />
    <circle
       style="fill:#a0a0a0;stroke:none;stroke-width:6.25;stroke-linecap:round;stroke-linejoin:round;stroke-miterlimit:4;stroke-dasharray:none"
       id="circle1407"
       cx="112.5"
       cy="401.53333"
       r="2.5" />
    <circle
       style="fill:#a0a0a0;stroke:none;stroke-width:6.25;stroke-linecap:round;stroke-linejoin:round;stroke-miterlimit:4;stroke-dasharray:none"
       id="circle1409"
       cx="112.5"
       cy="401.53333"
       r="2.5" />
    <circle
       style="fill:#a0a0a0;stroke:none;stroke-width:4;stroke-linecap:round;stroke-linejoin:round;stroke-miterlimit:4;stroke-dasharray:none"
       id="circle1479"
       cx="57"
       cy="406.53333"
       r="2" />
    <circle
       style="fill:#a0a0a0;stroke:none;stroke-width:4;stroke-linecap:round;stroke-linejoin:round;stroke-miterlimit:4;stroke-dasharray:none"
       id="circle1481"
       cx="61"
       cy="406.53333"
       r="2" />
    <circle
       style="fill:#a0a0a0;stroke:none;stroke-width:4;stroke-linecap:round;stroke-linejoin:round;stroke-miterlimit:4;stroke-dasharray:none"
       id="circle1483"
       cx="65"
       cy="406.53333"
       r="2" />
    <circle
       style="fill:#a0a0a0;stroke:none;stroke-width:4;stroke-linecap:round;stroke-linejoin:round;stroke-miterlimit:4;stroke-dasharray:none"
       id="circle1485"
       cx="69"
       cy="406.53333"
       r="2" />
    <circle
       style="fill:#a0a0a0;stroke:none;stroke-width:4;stroke-linecap:round;stroke-linejoin:round;stroke-miterlimit:4;stroke-dasharray:none"
       id="circle1487"
       cx="73"
       cy="406.53333"
       r="2" />
    <circle
       style="fill:#a0a0a0;stroke:none;stroke-width:4;stroke-linecap:round;stroke-linejoin:round;stroke-miterlimit:4;stroke-dasharray:none"
       id="circle1489"
       cx="77"
       cy="406.53333"
       r="2" />
    <circle
       style="fill:#a0a0a0;stroke:none;stroke-width:4;stroke-linecap:round;stroke-linejoin:round;stroke-miterlimit:4;stroke-dasharray:none"
       id="circle1491"
       cx="81"
       cy="406.53333"
       r="2" />
    <circle
       style="fill:#a0a0a0;stroke:none;stroke-width:4;stroke-linecap:round;stroke-linejoin:round;stroke-miterlimit:4;stroke-dasharray:none"
       id="circle1493"
       cx="85"
       cy="406.53333"
       r="2" />
    <circle
       style="fill:#a0a0a0;stroke:none;stroke-width:4;stroke-linecap:round;stroke-linejoin:round;stroke-miterlimit:4;stroke-dasharray:none"
       id="circle1495"
       cx="89"
       cy="406.53333"
       r="2" />
    <circle
       style="fill:#a0a0a0;stroke:none;stroke-width:4;stroke-linecap:round;stroke-linejoin:round;stroke-miterlimit:4;stroke-dasharray:none"
       id="circle1497"
       cx="93"
       cy="406.53333"
       r="2" />
    <circle
       style="fill:#a0a0a0;stroke:none;stroke-width:4;stroke-linecap:round;stroke-linejoin:round;stroke-miterlimit:4;stroke-dasharray:none"
       id="circle1499"
       cx="97"
       cy="406.53333"
       r="2" />
    <circle
       style="fill:#a0a0a0;stroke:none;stroke-width:4;stroke-linecap:round;stroke-linejoin:round;stroke-miterlimit:4;stroke-dasharray:none"
       id="circle1501"
       cx="101"
       cy="406.53333"
       r="2" />
    <circle
       style="fill:#a0a0a0;stroke:none;stroke-width:4;stroke-linecap:round;stroke-linejoin:round;stroke-miterlimit:4;stroke-dasharray:none"
       id="circle1503"
       cx="105"
       cy="406.53333"
       r="2" />
    <circle
       style="fill:#a0a0a0;stroke:none;stroke-width:4;stroke-linecap:round;stroke-linejoin:round;stroke-miterlimit:4;stroke-dasharray:none"
       id="circle1505"
       cx="109"
       cy="406.53333"
       r="2" />
    <circle
       style="fill:#a0a0a0;stroke:none;stroke-width:4;stroke-linecap:round;stroke-linejoin:round;stroke-miterlimit:4;stroke-dasharray:none"
       id="circle1507"
       cx="113"
       cy="406.53333"
       r="2" />
    <path
       id="rect1591"
       style="fill:#ffffff;stroke:#000000;stroke-width:4;stroke-linecap:round;stroke-linejoin:round;stroke-miterlimit:4;stroke-dasharray:none"
       d="m 402.37982,283.90789 h 67 c 2.216,0 4,1.784 4,4 v 70.99999 c 0,2.216 -22.784,25 -25,25 l -46,1e-5 c -2.216,0 -4,-1.784 -4,-4 v -92 c 0,-2.216 1.784,-4 4,-4 z"
       sodipodi:nodetypes="sssssssss" />
    <path
       id="path971-7"
       style="fill:#c4d9f5;stroke:#3250b0;stroke-width:4;stroke-linecap:round;stroke-linejoin:round;stroke-miterlimit:4;stroke-dasharray:none"
       d="m 455.8802,320.427 v 0 c 0,-10.02616 5.00863,-19.38957 13.3599,-24.95516 -11.72784,0.63769 -22.01226,8.07409 -26.27879,19.06616 -2.25796,0.59633 -4.63536,0.889 -7.08111,0.88901 -2.44575,0 -4.82315,-0.29267 -7.08111,-0.889 -4.26653,-10.99207 -14.55095,-18.42847 -26.27879,-19.06616 8.35127,5.56559 13.3599,14.929 13.3599,24.95516 v 0 c 0,5.15478 -1.32824,10.2226 -3.9113,14.67952 8.64329,5.50879 13.87601,15.04901 13.87601,25.29856 v 0 c -1e-5,0.69386 -0.0241,1.38752 -0.0794,2.18133 2.92709,2.74666 6.35487,4.78613 10.07941,6.10295 3.72454,-1.31682 7.15232,-3.35629 10.07941,-6.10295 -0.0553,-0.79381 -0.0794,-1.48747 -0.0794,-2.18133 v 0 c 0,-10.24955 5.23272,-19.78977 13.91129,-25.29856 -2.54778,-4.45693 -3.87602,-9.52475 -3.87602,-14.67953 z"
       sodipodi:nodetypes="ssccsccsscsscccsscs" />
    <path
       style="fill:none;stroke:#f01d0a;stroke-width:4;stroke-linecap:round;stroke-linejoin:round;stroke-miterlimit:4;stroke-dasharray:none"
       d="m 427.8436,327.10652 v 8"
       id="path1244-3-61"
       sodipodi:nodetypes="cc" />
    <path
       style="fill:none;stroke:#f01d0a;stroke-width:4;stroke-linecap:round;stroke-linejoin:round;stroke-miterlimit:4;stroke-dasharray:none"
       d="m 443.9168,327.10651 v 8"
       id="path1244-5-8"
       sodipodi:nodetypes="cc" />
    <circle
       style="fill:#3250b0;stroke:none;stroke-width:4;stroke-linecap:round;stroke-linejoin:round;stroke-miterlimit:4;stroke-dasharray:none"
       id="circle1152-5-9"
       cx="431.84491"
       cy="356.68936"
       r="2" />
    <circle
       style="fill:#3250b0;stroke:none;stroke-width:4;stroke-linecap:round;stroke-linejoin:round;stroke-miterlimit:4;stroke-dasharray:none"
       id="circle1154-6-20"
       cx="439.84494"
       cy="356.68936"
       r="2" />
    <path
       id="rect1593"
       style="fill:#ffffff;stroke:#000000;stroke-width:4;stroke-linecap:round;stroke-linejoin:round;stroke-miterlimit:4;stroke-dasharray:none"
       d="m 452.37982,358.90789 21,-1e-5 c 0,2.216 -22.784,25 -25,25 v -20.99999 c 0,-2.216 1.784,-4 4,-4 z"
       sodipodi:nodetypes="sssss" />
    <path
       style="fill:#ffffff;stroke:#ffffff;stroke-width:4;stroke-linecap:round;stroke-linejoin:round;stroke-miterlimit:4;stroke-dasharray:none"
       d="m 294.36596,210.81589 v 8"
       id="path1657"
       sodipodi:nodetypes="cc" />
    <path
       style="fill:#ffffff;stroke:#ffffff;stroke-width:4;stroke-linecap:round;stroke-linejoin:round;stroke-miterlimit:4;stroke-dasharray:none"
       d="m 310.43916,210.81588 v 8"
       id="path1659"
       sodipodi:nodetypes="cc" />
    <path
       style="fill:#ffffff;stroke:#000000;stroke-width:4;stroke-linecap:round;stroke-linejoin:round;stroke-miterlimit:4;stroke-dasharray:none"
       d="m 390.30135,210.81589 v 8"
       id="path1667"
       sodipodi:nodetypes="cc" />
    <path
       style="fill:#ffffff;stroke:#000000;stroke-width:4;stroke-linecap:round;stroke-linejoin:round;stroke-miterlimit:4;stroke-dasharray:none"
       d="m 406.37455,210.81588 v 8"
       id="path1669"
       sodipodi:nodetypes="cc" />
    <circle
       style="fill:#3250b0;stroke:none;stroke-width:4;stroke-linecap:round;stroke-linejoin:round;stroke-miterlimit:4;stroke-dasharray:none"
       id="circle1152-5"
       cx="290.96472"
       cy="352.79568"
       r="2" />
    <circle
       style="fill:#3250b0;stroke:none;stroke-width:4;stroke-linecap:round;stroke-linejoin:round;stroke-miterlimit:4;stroke-dasharray:none"
       id="circle1154-6"
       cx="298.96472"
       cy="352.79568"
       r="2" />
    <circle
       style="fill:#ffffff;stroke:none;stroke-width:4;stroke-linecap:round;stroke-linejoin:round;stroke-miterlimit:4;stroke-dasharray:none"
       id="circle1152-5-0"
       cx="298.36728"
       cy="240.39876"
       r="2" />
    <circle
       style="fill:#ffffff;stroke:none;stroke-width:4;stroke-linecap:round;stroke-linejoin:round;stroke-miterlimit:4;stroke-dasharray:none"
       id="circle1154-6-9"
       cx="306.36728"
       cy="240.39876"
       r="2" />
    <circle
       style="fill:#000000;stroke:none;stroke-width:4;stroke-linecap:round;stroke-linejoin:round;stroke-miterlimit:4;stroke-dasharray:none"
       id="circle1152-5-06"
       cx="394.30267"
       cy="240.39874"
       r="2" />
    <circle
       style="fill:#000000;stroke:none;stroke-width:4;stroke-linecap:round;stroke-linejoin:round;stroke-miterlimit:4;stroke-dasharray:none"
       id="circle1154-6-2"
       cx="402.30267"
       cy="240.39874"
       r="2" />
    <text
       xml:space="preserve"
       style="font-weight:bold;font-size:42.6667px;line-height:100%;font-family:'Baloo 2';-inkscape-font-specification:'Baloo 2 Bold';writing-mode:lr-tb;fill:#292f75;stroke:none;stroke-width:4;stroke-linecap:round;stroke-linejoin:round;paint-order:stroke fill markers"
       x="47.0229"
       y="524.24042"
       id="text904"><tspan
         sodipodi:role="line"
         x="47.0229"
         y="524.24042"
         id="tspan906">Font = 'Baloo 2' Bold</tspan></text>
    <g
       aria-label="Glaxnimate"
       id="text910"
       style="font-weight:bold;font-size:42.6667px;line-height:60%;font-family:'Baloo 2';-inkscape-font-specification:'Baloo 2 Bold';writing-mode:lr-tb;fill:#292f75;stroke:none;stroke-width:4;stroke-linecap:round;stroke-linejoin:round;paint-order:stroke fill markers"
       transform="translate(-183.74557,29.846322)">
      <g
         id="g945"
         transform="translate(6.0796683,6.7530605)">
        <path
           d="m 269.34021,444.85378 q 0,1.23733 -0.46933,1.83467 -0.46934,0.59733 -1.49334,1.19466 -0.59733,0.34134 -1.45066,0.64 -0.85334,0.29867 -1.92001,0.512 -1.024,0.21334 -2.176,0.34134 -1.10933,0.128 -2.21867,0.128 -3.072,0 -5.71733,-0.768 -2.60267,-0.81067 -4.56534,-2.47467 -1.96267,-1.664 -3.072,-4.224 -1.10934,-2.56001 -1.10934,-6.14401 0,-3.37067 1.10934,-5.93067 1.152,-2.60267 3.072,-4.30934 1.96267,-1.74933 4.56534,-2.60267 2.64533,-0.896 5.67467,-0.896 3.968,0 6.31467,1.23734 2.34667,1.23733 2.34667,3.15733 0,0.98134 -0.512,1.74934 -0.512,0.72533 -1.19467,1.152 -1.06667,-0.68267 -2.688,-1.28 -1.57867,-0.59734 -3.75467,-0.59734 -1.792,0 -3.28534,0.59734 -1.45067,0.55467 -2.51733,1.62133 -1.06667,1.06667 -1.664,2.60267 -0.59734,1.536 -0.59734,3.456 0,2.09067 0.55467,3.66934 0.59733,1.536 1.62133,2.56 1.024,1.024 2.43201,1.536 1.45066,0.512 3.11466,0.512 1.024,0 1.83467,-0.21333 0.85334,-0.21333 1.32267,-0.42667 v -4.82133 h -4.90667 q -0.256,-0.42667 -0.46933,-1.10934 -0.21334,-0.68267 -0.21334,-1.45067 0,-1.36533 0.64,-2.00533 0.64,-0.64 1.664,-0.64 h 7.16801 q 1.19467,0 1.87733,0.68267 0.68267,0.64 0.68267,1.83466 z"
           id="path912" />
        <path
           d="m 277.83082,449.07778 q -1.92,0 -2.77334,-0.59733 -0.81066,-0.64 -0.81066,-2.432 v -25.04536 q 0.42666,-0.128 1.19467,-0.256 0.81066,-0.128 1.74933,-0.128 1.87733,0 2.73067,0.64 0.85333,0.64 0.85333,2.43201 v 25.04535 q -0.46933,0.128 -1.23733,0.21333 -0.768,0.128 -1.70667,0.128 z"
           id="path914" />
        <path
           d="m 294.34277,444.64044 q 0.93867,0 1.83467,-0.17066 0.93866,-0.21334 1.408,-0.512 v -3.92534 l -3.49867,0.29867 q -1.36534,0.128 -2.21867,0.64 -0.81067,0.46933 -0.81067,1.45067 0,1.024 0.768,1.62133 0.768,0.59733 2.51734,0.59733 z m -0.256,-17.02401 q 2.21867,0 4.01067,0.46934 1.83467,0.42666 3.11467,1.36533 1.28,0.93867 1.96266,2.38933 0.72534,1.45067 0.72534,3.41334 v 9.64267 q 0,1.10934 -0.59733,1.79201 -0.55467,0.64 -1.36534,1.10933 -1.32267,0.81067 -3.24267,1.23733 -1.92,0.42667 -4.352,0.42667 -4.39467,0 -6.99734,-1.664 -2.60267,-1.70667 -2.60267,-5.16267 0,-2.944 1.74934,-4.48 1.74933,-1.53601 5.376,-1.92001 l 5.67467,-0.59733 v -0.46933 q 0,-1.36534 -1.10933,-2.00534 -1.10934,-0.64 -3.20001,-0.64 -1.62133,0 -3.2,0.384 -1.536,0.384 -2.77333,0.896 -0.512,-0.34133 -0.896,-1.024 -0.34134,-0.72533 -0.34134,-1.536 0,-1.87733 1.96267,-2.688 1.23733,-0.46933 2.85867,-0.68267 1.664,-0.256 3.24267,-0.256 z"
           id="path916" />
        <path
           d="m 309.48944,442.76311 q 0.93867,-1.10933 1.87734,-2.21867 0.93866,-1.152 1.92,-2.26133 l -5.84534,-7.04001 q 0.29867,-1.49333 1.19467,-2.38933 0.93867,-0.89601 2.26133,-0.89601 0.64,0 1.10934,0.17067 0.46933,0.128 0.85333,0.42667 0.42667,0.29867 0.768,0.768 0.384,0.42667 0.81067,0.98133 l 3.072,4.13867 4.864,-6.44267 q 0.17067,-0.0427 0.34134,-0.0427 0.17067,0 0.29867,0 1.792,0 2.85866,0.76801 1.06667,0.768 1.06667,2.00533 0,0.98133 -0.46933,1.74933 -0.46934,0.76801 -1.70667,2.13334 l -3.328,3.79734 5.80267,7.63734 q -0.21334,1.49333 -1.152,2.34666 -0.93867,0.81067 -2.304,0.81067 -1.40801,-0.0427 -2.30401,-0.81067 -0.85333,-0.81066 -1.70666,-2.00533 l -2.73067,-3.92534 -4.69334,6.61334 q -0.17067,0 -0.42667,0 -0.256,0.0427 -0.42666,0.0427 -1.92,0 -2.94401,-0.81067 -1.024,-0.81067 -1.024,-2.00533 0,-0.89601 0.42667,-1.57867 0.42667,-0.72534 1.536,-1.96267 z"
           id="path918" />
        <path
           d="m 343.87877,435.68044 q 0,-1.49334 -0.896,-2.21867 -0.896,-0.72533 -2.38933,-0.72533 -1.02401,0 -1.87734,0.256 -0.85333,0.256 -1.57867,0.64 v 15.10401 q -0.42666,0.128 -1.19466,0.21333 -0.76801,0.128 -1.70667,0.128 -1.92,0 -2.77334,-0.59733 -0.85333,-0.64 -0.85333,-2.432 v -13.18401 q 0,-1.10934 0.46933,-1.79201 0.46934,-0.68266 1.32267,-1.28 1.36533,-0.98133 3.49867,-1.57866 2.176,-0.59734 4.77867,-0.59734 4.65067,0 7.168,2.048 2.56001,2.048 2.56001,5.84534 v 13.22668 q -0.46934,0.128 -1.23734,0.21333 -0.768,0.128 -1.70667,0.128 -1.92,0 -2.77333,-0.59733 -0.81067,-0.64 -0.81067,-2.432 z"
           id="path920" />
        <path
           d="m 361.92677,448.73645 q -0.42666,0.128 -1.19466,0.21333 -0.768,0.128 -1.70667,0.128 -1.92,0 -2.77334,-0.59733 -0.81066,-0.64 -0.81066,-2.432 v -17.53602 q 0.42666,-0.128 1.19466,-0.256 0.768,-0.128 1.70667,-0.128 1.92,0 2.73067,0.64 0.85333,0.64 0.85333,2.432 z m -6.86933,-26.36802 q 0,-1.45067 0.98133,-2.47467 1.024,-1.024 2.64534,-1.024 1.62133,0 2.60266,1.024 1.02401,1.024 1.02401,2.47467 0,1.49333 -1.02401,2.51733 -0.98133,1.024 -2.60266,1.024 -1.62134,0 -2.64534,-1.024 -0.98133,-1.024 -0.98133,-2.51733 z"
           id="path922" />
        <path
           d="m 397.98006,448.73645 q -0.46934,0.128 -1.23734,0.21333 -0.768,0.128 -1.70667,0.128 -1.92,0 -2.77333,-0.59733 -0.81067,-0.64 -0.81067,-2.432 V 435.4671 q 0,-1.408 -0.768,-2.048 -0.768,-0.68266 -2.09067,-0.68266 -0.85333,0 -1.62133,0.29866 -0.72533,0.29867 -1.32267,0.768 0.0427,0.21334 0.0427,0.42667 0.0427,0.21333 0.0427,0.42667 v 14.08001 q -0.46933,0.128 -1.23733,0.21333 -0.768,0.128 -1.70667,0.128 -1.92,0 -2.77333,-0.59733 -0.81067,-0.64 -0.81067,-2.432 V 435.4671 q 0,-1.408 -0.85333,-2.048 -0.85334,-0.68266 -2.09067,-0.68266 -0.896,0 -1.62134,0.29866 -0.72533,0.256 -1.19466,0.512 v 15.18935 q -0.42667,0.128 -1.19467,0.21333 -0.768,0.128 -1.70667,0.128 -1.92,0 -2.77334,-0.59733 -0.85333,-0.64 -0.85333,-2.432 v -13.18401 q 0,-1.10934 0.46933,-1.79201 0.46934,-0.68266 1.32267,-1.28 1.408,-0.98133 3.456,-1.57866 2.09067,-0.59734 4.35201,-0.59734 1.792,0 3.37067,0.512 1.62133,0.46934 2.944,1.49334 1.28,-0.85334 2.90133,-1.408 1.62134,-0.59734 3.84001,-0.59734 1.664,0 3.15733,0.42667 1.536,0.384 2.68801,1.32267 1.152,0.896 1.83466,2.38933 0.72534,1.45067 0.72534,3.54134 z"
           id="path924" />
        <path
           d="m 411.33472,444.64044 q 0.93867,0 1.83467,-0.17066 0.93867,-0.21334 1.408,-0.512 v -3.92534 l -3.49867,0.29867 q -1.36533,0.128 -2.21867,0.64 -0.81066,0.46933 -0.81066,1.45067 0,1.024 0.768,1.62133 0.768,0.59733 2.51733,0.59733 z m -0.256,-17.02401 q 2.21867,0 4.01067,0.46934 1.83467,0.42666 3.11467,1.36533 1.28,0.93867 1.96267,2.38933 0.72533,1.45067 0.72533,3.41334 v 9.64267 q 0,1.10934 -0.59733,1.79201 -0.55467,0.64 -1.36533,1.10933 -1.32267,0.81067 -3.24267,1.23733 -1.92001,0.42667 -4.35201,0.42667 -4.39467,0 -6.99734,-1.664 -2.60266,-1.70667 -2.60266,-5.16267 0,-2.944 1.74933,-4.48 1.74934,-1.53601 5.376,-1.92001 l 5.67468,-0.59733 v -0.46933 q 0,-1.36534 -1.10934,-2.00534 -1.10933,-0.64 -3.2,-0.64 -1.62134,0 -3.2,0.384 -1.536,0.384 -2.77334,0.896 -0.512,-0.34133 -0.896,-1.024 -0.34133,-0.72533 -0.34133,-1.536 0,-1.87733 1.96267,-2.688 1.23733,-0.46933 2.85866,-0.68267 1.66401,-0.256 3.24267,-0.256 z"
           id="path926" />
        <path
           d="m 432.15606,441.99511 q 0,1.19467 0.768,1.74933 0.768,0.512 2.13334,0.512 0.64,0 1.36533,-0.128 0.72534,-0.17066 1.23734,-0.384 0.384,0.42667 0.64,0.98134 0.256,0.55466 0.256,1.28 0,1.49333 -1.19467,2.47467 -1.152,0.93866 -4.05334,0.93866 -3.584,0 -5.58933,-1.62133 -2.00534,-1.664 -2.00534,-5.376 v -19.15735 q 0.46934,-0.128 1.23734,-0.256 0.768,-0.17067 1.664,-0.17067 1.87733,0 2.688,0.68267 0.85333,0.64 0.85333,2.38933 v 2.77334 h 5.88801 q 0.21333,0.42667 0.42667,1.10933 0.21333,0.64 0.21333,1.36534 0,1.36533 -0.64,1.96267 -0.59734,0.59733 -1.57867,0.59733 h -4.30934 z"
           id="path928" />
        <path
           d="m 447.64398,441.22711 q 0.59734,1.792 2.09067,2.56 1.49334,0.72533 3.456,0.72533 1.79201,0 3.37067,-0.46933 1.57867,-0.512 2.56001,-1.10933 0.64,0.42666 1.06666,1.10933 0.42667,0.68267 0.42667,1.49333 0,0.98134 -0.59733,1.70667 -0.59734,0.72534 -1.66401,1.23734 -1.024,0.46933 -2.47466,0.68266 -1.40801,0.256 -3.11467,0.256 -2.51734,0 -4.65067,-0.68266 -2.13334,-0.72534 -3.66934,-2.09067 -1.536,-1.408 -2.432,-3.49867 -0.85333,-2.09067 -0.85333,-4.90667 0,-2.73067 0.85333,-4.736 0.896,-2.00534 2.34667,-3.32801 1.49333,-1.32266 3.37067,-1.92 1.92,-0.64 3.92533,-0.64 2.176,0 3.96801,0.68267 1.83466,0.64 3.11466,1.83467 1.32267,1.19466 2.04801,2.85867 0.72533,1.664 0.72533,3.62666 0,1.36534 -0.72533,2.04801 -0.72534,0.68266 -2.04801,0.896 z m 4.05334,-8.78934 q -1.83467,0 -3.072,1.152 -1.19467,1.10933 -1.408,3.24267 l 8.14934,-1.32267 q -0.0853,-1.10933 -0.98134,-2.09067 -0.896,-0.98133 -2.688,-0.98133 z"
           id="path930" />
      </g>
    </g>
    <g
       id="g966"
       transform="translate(153.94164,398.83694)">
      <path
         style="fill:none;stroke:#f01d0a;stroke-width:4;stroke-linecap:round;stroke-linejoin:round;stroke-miterlimit:4;stroke-dasharray:none"
         d="m 181.61402,208.19066 v 8"
         id="path949"
         sodipodi:nodetypes="cc" />
      <path
         style="fill:none;stroke:#f01d0a;stroke-width:4;stroke-linecap:round;stroke-linejoin:round;stroke-miterlimit:4;stroke-dasharray:none"
         d="m 197.68722,208.19065 v 8"
         id="path951"
         sodipodi:nodetypes="cc" />
      <path
         id="path953"
         style="fill:none;stroke:#3250b0;stroke-width:4;stroke-linecap:round;stroke-linejoin:round;stroke-miterlimit:4;stroke-dasharray:none"
         d="m 209.65062,201.51114 v 0 c 0,-10.02616 5.00863,-19.38957 13.3599,-24.95516 -11.72784,0.63769 -22.01226,8.07409 -26.27879,19.06616 -2.25796,0.59633 -4.63536,0.889 -7.08111,0.88901 -2.44575,0 -4.82315,-0.29267 -7.08111,-0.889 -4.26653,-10.99207 -14.55095,-18.42847 -26.27879,-19.06616 8.35127,5.56559 13.3599,14.929 13.3599,24.95516 v 0 c 0,5.15478 -1.32824,10.2226 -3.9113,14.67952 8.64329,5.50879 13.87601,15.04901 13.87601,25.29856 v 0 c -1e-5,0.69386 -0.0241,1.38752 -0.0794,2.18133 2.92709,2.74666 6.35487,4.78613 10.07941,6.10295 3.72454,-1.31682 7.15232,-3.35629 10.07941,-6.10295 -0.0553,-0.79381 -0.0794,-1.48747 -0.0794,-2.18133 v 0 c 0,-10.24955 5.23272,-19.78977 13.91129,-25.29856 -2.54778,-4.45693 -3.87602,-9.52475 -3.87602,-14.67953 z"
         sodipodi:nodetypes="ssccsccsscsscccsscs" />
      <circle
         style="fill:#3250b0;stroke:none;stroke-width:4;stroke-linecap:round;stroke-linejoin:round;stroke-miterlimit:4;stroke-dasharray:none"
         id="circle955"
         cx="185.61534"
         cy="237.77351"
         r="2" />
      <circle
         style="fill:#3250b0;stroke:none;stroke-width:4;stroke-linecap:round;stroke-linejoin:round;stroke-miterlimit:4;stroke-dasharray:none"
         id="circle957"
         cx="193.61534"
         cy="237.77351"
         r="2" />
    </g>
    <circle
       style="fill:#ffffff;stroke:none;stroke-width:4;stroke-linecap:round;stroke-linejoin:round;paint-order:stroke fill markers"
       id="circle968"
       cx="436.32288"
       cy="604.24512"
       r="46.365311"
       inkscape:export-filename="/tmp/avatar.png"
       inkscape:export-xdpi="578.26001"
       inkscape:export-ydpi="578.26001" />
    <path
       id="path974"
       style="fill:#c4d9f5;stroke:#3250b0;stroke-width:4;stroke-linecap:round;stroke-linejoin:round;stroke-miterlimit:4;stroke-dasharray:none"
       d="m 456.3229,600.3481 v 0 c 0,-10.02616 5.00863,-19.38957 13.3599,-24.95516 -11.72784,0.63769 -22.01226,8.07409 -26.27879,19.06616 -2.25796,0.59633 -4.63536,0.889 -7.08111,0.88901 -2.44575,0 -4.82315,-0.29267 -7.08111,-0.889 -4.26653,-10.99207 -14.55095,-18.42847 -26.27879,-19.06616 8.35127,5.56559 13.3599,14.929 13.3599,24.95516 v 0 c 0,5.15478 -1.32824,10.2226 -3.9113,14.67952 8.64329,5.50879 13.87601,15.04901 13.87601,25.29856 v 0 c -10e-6,0.69386 -0.0241,1.38752 -0.0794,2.18133 2.92709,2.74666 6.35487,4.78613 10.07941,6.10295 3.72454,-1.31682 7.15232,-3.35629 10.07941,-6.10295 -0.0553,-0.79381 -0.0794,-1.48747 -0.0794,-2.18133 v 0 c 0,-10.24955 5.23272,-19.78977 13.91129,-25.29856 -2.54778,-4.45693 -3.87602,-9.52475 -3.87602,-14.67953 z"
       sodipodi:nodetypes="ssccsccsscsscccsscs" />
    <path
       style="fill:none;stroke:#f01d0a;stroke-width:4;stroke-linecap:round;stroke-linejoin:round;stroke-miterlimit:4;stroke-dasharray:none"
       d="m 428.2863,607.02762 v 8"
       id="path970"
       sodipodi:nodetypes="cc" />
    <path
       style="fill:none;stroke:#f01d0a;stroke-width:4;stroke-linecap:round;stroke-linejoin:round;stroke-miterlimit:4;stroke-dasharray:none"
       d="m 444.3595,607.02761 v 8"
       id="path972"
       sodipodi:nodetypes="cc" />
    <circle
       style="fill:#3250b0;stroke:none;stroke-width:4;stroke-linecap:round;stroke-linejoin:round;stroke-miterlimit:4;stroke-dasharray:none"
       id="circle976"
       cx="432.28763"
       cy="636.61047"
       r="2" />
    <circle
       style="fill:#3250b0;stroke:none;stroke-width:4;stroke-linecap:round;stroke-linejoin:round;stroke-miterlimit:4;stroke-dasharray:none"
       id="circle978"
       cx="440.28763"
       cy="636.61047"
       r="2" />
  </g>
</svg>
