<?xml version="1.0" encoding="UTF-8" standalone="no"?>
<svg
   width="800"
   height="600"
   viewBox="0 0 800 600"
   version="1.1"
   id="svg4575"
   inkscape:version="1.1.2 (0a00cf5339, 2022-02-04)"
   sodipodi:docname="splash-screen.svg"
   xmlns:inkscape="http://www.inkscape.org/namespaces/inkscape"
   xmlns:sodipodi="http://sodipodi.sourceforge.net/DTD/sodipodi-0.dtd"
   xmlns="http://www.w3.org/2000/svg"
   xmlns:svg="http://www.w3.org/2000/svg"
   xmlns:rdf="http://www.w3.org/1999/02/22-rdf-syntax-ns#"
   xmlns:cc="http://creativecommons.org/ns#"
   xmlns:dc="http://purl.org/dc/elements/1.1/">
  <defs
     id="defs4569" />
  <sodipodi:namedview
     id="base"
     pagecolor="#ffffff"
     bordercolor="#666666"
     borderopacity="1.0"
     inkscape:pageopacity="0.0"
     inkscape:pageshadow="2"
     inkscape:zoom="1.4"
     inkscape:cx="55"
     inkscape:cy="351.42857"
     inkscape:document-units="px"
     inkscape:current-layer="layer1"
     showgrid="false"
     units="px"
     inkscape:pagecheckerboard="true"
     inkscape:window-width="2408"
     inkscape:window-height="1411"
     inkscape:window-x="30"
     inkscape:window-y="0"
     inkscape:window-maximized="1"
     inkscape:document-rotation="0"
     borderlayer="true" />
  <metadata
     id="metadata4572">
    <rdf:RDF>
      <cc:Work
         rdf:about="">
        <dc:format>image/svg+xml</dc:format>
        <dc:type
           rdf:resource="http://purl.org/dc/dcmitype/StillImage" />
      </cc:Work>
    </rdf:RDF>
  </metadata>
  <g
     inkscape:label="ref"
     inkscape:groupmode="layer"
     id="layer1"
     transform="translate(0,-161.53332)">
    <g
       aria-label="Glaxnimate"
       id="text3081"
       style="font-weight:bold;font-size:233.607px;line-height:80%;font-family:'Open Sans';-inkscape-font-specification:'Open Sans Bold';text-align:center;text-anchor:middle;fill:#292f75;stroke:#c4d9f5;stroke-width:16;stroke-linecap:round;stroke-linejoin:round;paint-order:stroke fill markers">
      <path
         d="m 59.752758,742.46327 q -13.782813,0 -24.995948,-6.541 -11.213136,-6.54099 -17.754132,-17.75413 -6.540996,-11.21314 -6.540996,-25.46316 0,-14.25003 6.307389,-25.22956 6.540996,-11.21313 17.987739,-17.75413 11.446742,-6.541 25.930376,-6.541 10.278708,0 18.454953,2.56968 8.409851,2.56968 15.418061,8.17625 3.737712,3.03689 3.737712,7.94263 0,3.97132 -2.803284,6.77461 -2.803284,2.80328 -6.774603,2.80328 -2.569677,0 -5.840174,-2.10246 -5.139354,-3.2705 -10.512315,-5.13936 -5.372961,-2.10246 -11.446743,-2.10246 -12.848385,0 -21.258236,8.64346 -8.176245,8.40985 -8.176245,21.95906 0,14.01642 7.942638,22.42627 7.942637,8.40985 20.323808,8.40985 11.446743,0 18.68856,-4.43853 7.475423,-4.67214 7.475423,-11.91396 0,-1.86885 -1.635248,-1.86885 H 68.629824 q -4.438533,0 -7.241817,-2.56968 -2.569677,-2.56968 -2.569677,-6.7746 0,-3.97132 2.569677,-6.541 2.803284,-2.56968 7.241817,-2.56968 h 25.696769 q 6.307387,0 9.110677,3.03689 2.80328,2.80329 2.80328,9.57789 0,19.62299 -12.848385,31.30334 -12.614777,11.68035 -33.639407,11.68035 z"
         style="font-family:Dongle;-inkscape-font-specification:'Dongle Bold'"
         id="path3539" />
      <path
         d="m 132.17072,742.46327 q -4.43854,0 -7.47543,-2.56968 -3.03689,-2.56968 -3.03689,-6.541 v -86.9018 q 0,-3.73771 2.80329,-6.30739 3.03689,-2.80328 7.70903,-2.80328 4.43853,0 7.24181,2.80328 2.80329,2.56968 2.80329,6.541 v 86.43459 q 0,3.97132 -3.03689,6.7746 -2.80329,2.56968 -7.00821,2.56968 z"
         style="font-family:Dongle;-inkscape-font-specification:'Dongle Bold'"
         id="path3541" />
      <path
         d="m 191.50646,742.46327 q -15.65166,0 -25.46316,-9.8115 -9.57788,-10.0451 -9.57788,-26.63119 0,-16.5861 9.34428,-26.16399 9.57788,-9.81149 24.99594,-9.81149 10.97953,0 19.15578,7.70903 0.93443,-2.80328 3.5041,-4.67214 2.56968,-1.86886 6.07378,-1.86886 4.67214,0 7.47543,2.80329 3.03689,2.56967 3.03689,6.30739 v 53.02878 q 0,3.97132 -3.03689,6.541 -2.80329,2.56968 -7.47543,2.56968 -7.70903,0 -9.57788,-6.77461 -7.47543,6.77461 -18.45496,6.77461 z m 1.63525,-18.92217 q 7.47543,0 11.91396,-4.90575 4.43853,-5.13935 4.43853,-12.61477 0,-7.70903 -4.43853,-12.38117 -4.43853,-4.67214 -11.91396,-4.67214 -7.24181,0 -11.91395,4.67214 -4.43854,4.67214 -4.43854,12.38117 0,7.47542 4.43854,12.61477 4.67214,4.90575 11.91395,4.90575 z"
         style="font-family:Dongle;-inkscape-font-specification:'Dongle Bold'"
         id="path3543" />
      <path
         d="m 251.076,742.46327 q -3.97132,0 -7.24182,-3.03689 -3.27049,-3.03689 -3.27049,-7.00821 0,-3.73772 3.03689,-7.00821 l 16.11888,-16.5861 q 1.40164,-1.86886 1.40164,-3.2705 0,-1.86885 -1.40164,-3.2705 l -16.35249,-16.35249 q -2.33607,-3.03689 -2.33607,-6.07378 0,-3.97132 3.50411,-6.7746 3.5041,-3.03689 7.70903,-3.03689 4.43853,0 7.00821,3.2705 l 13.08199,15.18445 q 1.40164,1.40164 2.80328,1.40164 1.86886,0 2.80329,-1.40164 l 12.84838,-15.18445 q 2.56968,-3.2705 7.00821,-3.2705 4.20493,0 7.70903,3.03689 3.50411,2.80328 3.50411,7.00821 0,2.80328 -2.33607,5.84017 l -16.35249,16.35249 q -1.40165,1.40165 -1.40165,3.2705 0,1.40164 1.40165,3.2705 l 16.11888,16.5861 q 3.03689,3.27049 3.03689,7.00821 0,3.97132 -3.2705,7.00821 -3.2705,3.03689 -7.24181,3.03689 -4.20493,0 -7.00821,-3.50411 l -14.01642,-16.58609 q -0.93443,-1.40165 -2.80329,-1.40165 -1.40164,0 -2.80328,1.40165 l -14.25003,16.58609 q -1.63525,1.86886 -3.5041,2.56968 -1.63525,0.93443 -3.50411,0.93443 z"
         style="font-family:Dongle;-inkscape-font-specification:'Dongle Bold'"
         id="path3545" />
      <path
         d="m 379.79313,742.46327 q -4.43853,0 -7.47542,-2.56968 -2.80329,-2.56968 -2.80329,-6.541 v -28.50005 q 0,-8.64346 -3.97132,-12.38117 -3.73771,-3.73771 -9.34428,-3.73771 -5.84017,0 -9.81149,3.73771 -3.73771,3.73771 -4.67214,8.64346 v 31.30334 q 0,3.97132 -3.03689,6.7746 -2.80329,2.56968 -7.00821,2.56968 -4.43853,0 -7.47543,-2.56968 -3.03689,-2.56968 -3.03689,-6.541 v -52.32796 q 0,-3.73772 2.80329,-6.30739 3.03689,-2.80329 7.70903,-2.80329 3.73771,0 6.30739,2.10247 2.56967,1.86885 3.5041,4.90574 6.30739,-8.17624 19.15578,-8.17624 13.08199,0 21.25823,7.70903 8.17625,7.70903 8.17625,24.52873 v 31.53695 q 0,3.73771 -3.03689,6.30739 -2.80329,2.33607 -7.24182,2.33607 z"
         style="font-family:Dongle;-inkscape-font-specification:'Dongle Bold'"
         id="path3547" />
      <path
         d="m 418.33805,742.46327 q -4.43853,0 -7.47542,-2.56968 -3.03689,-2.56968 -3.03689,-6.541 v -53.02878 q 0,-3.73772 2.80328,-6.30739 3.03689,-2.80329 7.70903,-2.80329 4.67214,0 7.24182,2.80329 2.80328,2.56967 2.80328,6.54099 v 52.56158 q 0,3.97132 -3.03689,6.7746 -2.80328,2.56968 -7.00821,2.56968 z m 0,-82.93049 q -4.90575,0 -8.40985,-3.03689 -3.50411,-3.27049 -3.50411,-8.17624 0,-4.43853 3.50411,-7.70903 3.5041,-3.2705 8.40985,-3.2705 4.67214,0 7.94264,3.2705 3.5041,3.2705 3.5041,7.70903 0,4.90575 -3.5041,8.17624 -3.2705,3.03689 -7.94264,3.03689 z"
         style="font-family:Dongle;-inkscape-font-specification:'Dongle Bold'"
         id="path3549" />
      <path
         d="m 457.81721,742.46327 q -4.43853,0 -7.47542,-2.56968 -3.03689,-2.56968 -3.03689,-6.541 v -53.02878 q 0,-3.73772 2.80328,-6.30739 3.03689,-2.80329 7.70903,-2.80329 5.37296,0 8.17625,3.73772 1.16803,1.40164 1.40164,2.80328 2.80328,-3.50411 7.47542,-5.60657 4.67214,-2.10246 10.51232,-2.10246 15.88527,0 22.89348,10.51231 4.20493,-5.13935 10.27871,-7.70903 6.07378,-2.80328 12.61478,-2.80328 13.08199,0 20.55742,7.70903 7.70903,7.70903 7.70903,24.52873 v 31.53695 q 0,3.73771 -3.0369,6.30739 -2.80328,2.33607 -7.24181,2.33607 -4.43853,0 -7.47543,-2.56968 -2.80328,-2.56968 -2.80328,-6.541 v -28.50005 q 0,-8.64346 -3.03689,-12.38117 -3.03689,-3.73771 -8.64346,-3.73771 -5.60657,0 -9.11067,3.5041 -3.2705,3.2705 -4.43854,7.94264 v 33.63941 q 0,3.73771 -3.03689,6.30739 -2.80328,2.33607 -7.24181,2.33607 -4.43854,0 -7.47543,-2.56968 -2.80328,-2.56968 -2.80328,-6.541 v -28.50005 q 0,-8.64346 -3.03689,-12.38117 -3.03689,-3.73771 -8.64346,-3.73771 -5.37296,0 -8.87707,3.5041 -3.5041,3.2705 -4.67214,7.70903 v 33.1722 q 0,3.97132 -3.03689,6.7746 -2.80328,2.56968 -7.00821,2.56968 z"
         style="font-family:Dongle;-inkscape-font-specification:'Dongle Bold'"
         id="path3551" />
      <path
         d="m 607.3253,742.46327 q -15.65167,0 -25.46317,-9.8115 -9.57788,-10.0451 -9.57788,-26.63119 0,-16.5861 9.34428,-26.16399 9.57788,-9.81149 24.99595,-9.81149 10.97952,0 19.15577,7.70903 0.93443,-2.80328 3.5041,-4.67214 2.56968,-1.86886 6.07379,-1.86886 4.67214,0 7.47542,2.80329 3.03689,2.56967 3.03689,6.30739 v 53.02878 q 0,3.97132 -3.03689,6.541 -2.80328,2.56968 -7.47542,2.56968 -7.70903,0 -9.57789,-6.77461 -7.47542,6.77461 -18.45495,6.77461 z m 1.63525,-18.92217 q 7.47542,0 11.91395,-4.90575 4.43854,-5.13935 4.43854,-12.61477 0,-7.70903 -4.43854,-12.38117 -4.43853,-4.67214 -11.91395,-4.67214 -7.24182,0 -11.91396,4.67214 -4.43853,4.67214 -4.43853,12.38117 0,7.47542 4.43853,12.61477 4.67214,4.90575 11.91396,4.90575 z"
         style="font-family:Dongle;-inkscape-font-specification:'Dongle Bold'"
         id="path3553" />
      <path
         d="m 692.59159,742.46327 q -10.0451,0 -16.5861,-5.84018 -6.54099,-5.84017 -6.54099,-17.98774 V 693.4058 q 0,-2.33607 -2.33607,-2.33607 h -3.50411 q -4.20492,0 -6.30739,-2.56968 -2.10246,-2.56968 -2.10246,-6.54099 0,-4.20493 2.10246,-6.77461 2.10247,-2.80328 6.30739,-2.80328 h 3.50411 q 2.33607,0 2.33607,-2.33607 v -17.28692 q 0,-3.97132 2.80328,-6.7746 2.80328,-2.80329 7.24182,-2.80329 4.43853,0 7.24181,2.80329 3.03689,2.56968 3.03689,6.7746 v 17.28692 q 0,2.33607 2.33607,2.33607 h 8.64346 q 3.97132,0 6.541,2.80328 2.80328,2.80329 2.80328,6.77461 0,3.97131 -2.80328,6.54099 -2.56968,2.56968 -6.7746,2.56968 h -8.40986 q -2.33607,0 -2.33607,2.33607 v 21.95906 q 0,4.20492 1.40165,5.84017 1.63525,1.63525 3.97132,1.63525 0.93442,0 3.73771,-0.46721 2.80328,-0.70083 3.5041,-0.70083 3.73771,0 6.30739,2.80329 2.56968,2.80328 2.56968,6.7746 0,3.03689 -1.86886,5.60657 -1.63525,2.56968 -5.37296,3.73771 -3.03689,0.93443 -5.84017,1.40164 -2.80329,0.46722 -5.60657,0.46722 z"
         style="font-family:Dongle;-inkscape-font-specification:'Dongle Bold'"
         id="path3555" />
      <path
         d="m 755.89888,742.46327 q -15.88528,0 -26.8648,-9.34428 -10.74593,-9.57789 -10.74593,-26.16399 0,-17.28691 10.51232,-27.09841 10.74592,-9.81149 26.8648,-9.81149 11.44675,0 18.92217,4.20492 7.47542,4.20493 11.21314,10.74593 3.73771,6.54099 3.73771,13.78281 0,12.14756 -10.74592,12.14756 H 740.0136 q -1.86885,0 -1.86885,2.33607 0,5.37296 5.84017,8.64346 6.07379,3.03689 13.54921,3.03689 4.67214,0 9.34428,-1.16803 4.67214,-1.40164 8.17624,-3.97132 2.33607,-1.63525 4.90575,-1.63525 3.50411,0 5.84018,2.56968 2.56967,2.56967 2.56967,6.07378 0,4.20492 -4.43853,7.94264 -4.20493,3.5041 -12.38117,5.60656 -7.94264,2.10247 -15.65167,2.10247 z m 12.14756,-45.08615 q 0.46722,0 1.16804,-0.23361 0.93443,-0.23361 0.93443,-1.63525 0,-3.5041 -4.43854,-6.30739 -4.20492,-3.03689 -10.97952,-3.03689 -7.24182,0 -11.91396,3.2705 -4.43853,3.03689 -4.43853,6.30739 0,1.63525 1.86885,1.63525 z"
         style="font-family:Dongle;-inkscape-font-specification:'Dongle Bold'"
         id="path3557" />
    </g>
    <g
       aria-label="Glaxnimate"
       id="text1511"
       style="font-weight:bold;font-size:233.607px;line-height:80%;font-family:'Open Sans';-inkscape-font-specification:'Open Sans Bold';text-align:center;text-anchor:middle;fill:#292f75;stroke-width:37.5439;stroke-linecap:round;stroke-linejoin:round;paint-order:stroke fill markers">
      <path
         d="m 59.752758,742.46327 q -13.782813,0 -24.995948,-6.541 -11.213136,-6.54099 -17.754132,-17.75413 -6.540996,-11.21314 -6.540996,-25.46316 0,-14.25003 6.307389,-25.22956 6.540996,-11.21313 17.987739,-17.75413 11.446742,-6.541 25.930376,-6.541 10.278708,0 18.454953,2.56968 8.409851,2.56968 15.418061,8.17625 3.737712,3.03689 3.737712,7.94263 0,3.97132 -2.803284,6.77461 -2.803284,2.80328 -6.774603,2.80328 -2.569677,0 -5.840174,-2.10246 -5.139354,-3.2705 -10.512315,-5.13936 -5.372961,-2.10246 -11.446743,-2.10246 -12.848385,0 -21.258236,8.64346 -8.176245,8.40985 -8.176245,21.95906 0,14.01642 7.942638,22.42627 7.942637,8.40985 20.323808,8.40985 11.446743,0 18.68856,-4.43853 7.475423,-4.67214 7.475423,-11.91396 0,-1.86885 -1.635248,-1.86885 H 68.629824 q -4.438533,0 -7.241817,-2.56968 -2.569677,-2.56968 -2.569677,-6.7746 0,-3.97132 2.569677,-6.541 2.803284,-2.56968 7.241817,-2.56968 h 25.696769 q 6.307387,0 9.110677,3.03689 2.80328,2.80329 2.80328,9.57789 0,19.62299 -12.848385,31.30334 -12.614777,11.68035 -33.639407,11.68035 z"
         style="font-family:Dongle;-inkscape-font-specification:'Dongle Bold'"
         id="path3188" />
      <path
         d="m 132.17072,742.46327 q -4.43854,0 -7.47543,-2.56968 -3.03689,-2.56968 -3.03689,-6.541 v -86.9018 q 0,-3.73771 2.80329,-6.30739 3.03689,-2.80328 7.70903,-2.80328 4.43853,0 7.24181,2.80328 2.80329,2.56968 2.80329,6.541 v 86.43459 q 0,3.97132 -3.03689,6.7746 -2.80329,2.56968 -7.00821,2.56968 z"
         style="font-family:Dongle;-inkscape-font-specification:'Dongle Bold'"
         id="path3190" />
      <path
         d="m 191.50646,742.46327 q -15.65166,0 -25.46316,-9.8115 -9.57788,-10.0451 -9.57788,-26.63119 0,-16.5861 9.34428,-26.16399 9.57788,-9.81149 24.99594,-9.81149 10.97953,0 19.15578,7.70903 0.93443,-2.80328 3.5041,-4.67214 2.56968,-1.86886 6.07378,-1.86886 4.67214,0 7.47543,2.80329 3.03689,2.56967 3.03689,6.30739 v 53.02878 q 0,3.97132 -3.03689,6.541 -2.80329,2.56968 -7.47543,2.56968 -7.70903,0 -9.57788,-6.77461 -7.47543,6.77461 -18.45496,6.77461 z m 1.63525,-18.92217 q 7.47543,0 11.91396,-4.90575 4.43853,-5.13935 4.43853,-12.61477 0,-7.70903 -4.43853,-12.38117 -4.43853,-4.67214 -11.91396,-4.67214 -7.24181,0 -11.91395,4.67214 -4.43854,4.67214 -4.43854,12.38117 0,7.47542 4.43854,12.61477 4.67214,4.90575 11.91395,4.90575 z"
         style="font-family:Dongle;-inkscape-font-specification:'Dongle Bold'"
         id="path3192" />
      <path
         d="m 251.076,742.46327 q -3.97132,0 -7.24182,-3.03689 -3.27049,-3.03689 -3.27049,-7.00821 0,-3.73772 3.03689,-7.00821 l 16.11888,-16.5861 q 1.40164,-1.86886 1.40164,-3.2705 0,-1.86885 -1.40164,-3.2705 l -16.35249,-16.35249 q -2.33607,-3.03689 -2.33607,-6.07378 0,-3.97132 3.50411,-6.7746 3.5041,-3.03689 7.70903,-3.03689 4.43853,0 7.00821,3.2705 l 13.08199,15.18445 q 1.40164,1.40164 2.80328,1.40164 1.86886,0 2.80329,-1.40164 l 12.84838,-15.18445 q 2.56968,-3.2705 7.00821,-3.2705 4.20493,0 7.70903,3.03689 3.50411,2.80328 3.50411,7.00821 0,2.80328 -2.33607,5.84017 l -16.35249,16.35249 q -1.40165,1.40165 -1.40165,3.2705 0,1.40164 1.40165,3.2705 l 16.11888,16.5861 q 3.03689,3.27049 3.03689,7.00821 0,3.97132 -3.2705,7.00821 -3.2705,3.03689 -7.24181,3.03689 -4.20493,0 -7.00821,-3.50411 l -14.01642,-16.58609 q -0.93443,-1.40165 -2.80329,-1.40165 -1.40164,0 -2.80328,1.40165 l -14.25003,16.58609 q -1.63525,1.86886 -3.5041,2.56968 -1.63525,0.93443 -3.50411,0.93443 z"
         style="font-family:Dongle;-inkscape-font-specification:'Dongle Bold'"
         id="path3194" />
      <path
         d="m 379.79313,742.46327 q -4.43853,0 -7.47542,-2.56968 -2.80329,-2.56968 -2.80329,-6.541 v -28.50005 q 0,-8.64346 -3.97132,-12.38117 -3.73771,-3.73771 -9.34428,-3.73771 -5.84017,0 -9.81149,3.73771 -3.73771,3.73771 -4.67214,8.64346 v 31.30334 q 0,3.97132 -3.03689,6.7746 -2.80329,2.56968 -7.00821,2.56968 -4.43853,0 -7.47543,-2.56968 -3.03689,-2.56968 -3.03689,-6.541 v -52.32796 q 0,-3.73772 2.80329,-6.30739 3.03689,-2.80329 7.70903,-2.80329 3.73771,0 6.30739,2.10247 2.56967,1.86885 3.5041,4.90574 6.30739,-8.17624 19.15578,-8.17624 13.08199,0 21.25823,7.70903 8.17625,7.70903 8.17625,24.52873 v 31.53695 q 0,3.73771 -3.03689,6.30739 -2.80329,2.33607 -7.24182,2.33607 z"
         style="font-family:Dongle;-inkscape-font-specification:'Dongle Bold'"
         id="path3196" />
      <path
         d="m 418.33805,742.46327 q -4.43853,0 -7.47542,-2.56968 -3.03689,-2.56968 -3.03689,-6.541 v -53.02878 q 0,-3.73772 2.80328,-6.30739 3.03689,-2.80329 7.70903,-2.80329 4.67214,0 7.24182,2.80329 2.80328,2.56967 2.80328,6.54099 v 52.56158 q 0,3.97132 -3.03689,6.7746 -2.80328,2.56968 -7.00821,2.56968 z m 0,-82.93049 q -4.90575,0 -8.40985,-3.03689 -3.50411,-3.27049 -3.50411,-8.17624 0,-4.43853 3.50411,-7.70903 3.5041,-3.2705 8.40985,-3.2705 4.67214,0 7.94264,3.2705 3.5041,3.2705 3.5041,7.70903 0,4.90575 -3.5041,8.17624 -3.2705,3.03689 -7.94264,3.03689 z"
         style="font-family:Dongle;-inkscape-font-specification:'Dongle Bold'"
         id="path3198" />
      <path
         d="m 457.81721,742.46327 q -4.43853,0 -7.47542,-2.56968 -3.03689,-2.56968 -3.03689,-6.541 v -53.02878 q 0,-3.73772 2.80328,-6.30739 3.03689,-2.80329 7.70903,-2.80329 5.37296,0 8.17625,3.73772 1.16803,1.40164 1.40164,2.80328 2.80328,-3.50411 7.47542,-5.60657 4.67214,-2.10246 10.51232,-2.10246 15.88527,0 22.89348,10.51231 4.20493,-5.13935 10.27871,-7.70903 6.07378,-2.80328 12.61478,-2.80328 13.08199,0 20.55742,7.70903 7.70903,7.70903 7.70903,24.52873 v 31.53695 q 0,3.73771 -3.0369,6.30739 -2.80328,2.33607 -7.24181,2.33607 -4.43853,0 -7.47543,-2.56968 -2.80328,-2.56968 -2.80328,-6.541 v -28.50005 q 0,-8.64346 -3.03689,-12.38117 -3.03689,-3.73771 -8.64346,-3.73771 -5.60657,0 -9.11067,3.5041 -3.2705,3.2705 -4.43854,7.94264 v 33.63941 q 0,3.73771 -3.03689,6.30739 -2.80328,2.33607 -7.24181,2.33607 -4.43854,0 -7.47543,-2.56968 -2.80328,-2.56968 -2.80328,-6.541 v -28.50005 q 0,-8.64346 -3.03689,-12.38117 -3.03689,-3.73771 -8.64346,-3.73771 -5.37296,0 -8.87707,3.5041 -3.5041,3.2705 -4.67214,7.70903 v 33.1722 q 0,3.97132 -3.03689,6.7746 -2.80328,2.56968 -7.00821,2.56968 z"
         style="font-family:Dongle;-inkscape-font-specification:'Dongle Bold'"
         id="path3200" />
      <path
         d="m 607.3253,742.46327 q -15.65167,0 -25.46317,-9.8115 -9.57788,-10.0451 -9.57788,-26.63119 0,-16.5861 9.34428,-26.16399 9.57788,-9.81149 24.99595,-9.81149 10.97952,0 19.15577,7.70903 0.93443,-2.80328 3.5041,-4.67214 2.56968,-1.86886 6.07379,-1.86886 4.67214,0 7.47542,2.80329 3.03689,2.56967 3.03689,6.30739 v 53.02878 q 0,3.97132 -3.03689,6.541 -2.80328,2.56968 -7.47542,2.56968 -7.70903,0 -9.57789,-6.77461 -7.47542,6.77461 -18.45495,6.77461 z m 1.63525,-18.92217 q 7.47542,0 11.91395,-4.90575 4.43854,-5.13935 4.43854,-12.61477 0,-7.70903 -4.43854,-12.38117 -4.43853,-4.67214 -11.91395,-4.67214 -7.24182,0 -11.91396,4.67214 -4.43853,4.67214 -4.43853,12.38117 0,7.47542 4.43853,12.61477 4.67214,4.90575 11.91396,4.90575 z"
         style="font-family:Dongle;-inkscape-font-specification:'Dongle Bold'"
         id="path3202" />
      <path
         d="m 692.59159,742.46327 q -10.0451,0 -16.5861,-5.84018 -6.54099,-5.84017 -6.54099,-17.98774 V 693.4058 q 0,-2.33607 -2.33607,-2.33607 h -3.50411 q -4.20492,0 -6.30739,-2.56968 -2.10246,-2.56968 -2.10246,-6.54099 0,-4.20493 2.10246,-6.77461 2.10247,-2.80328 6.30739,-2.80328 h 3.50411 q 2.33607,0 2.33607,-2.33607 v -17.28692 q 0,-3.97132 2.80328,-6.7746 2.80328,-2.80329 7.24182,-2.80329 4.43853,0 7.24181,2.80329 3.03689,2.56968 3.03689,6.7746 v 17.28692 q 0,2.33607 2.33607,2.33607 h 8.64346 q 3.97132,0 6.541,2.80328 2.80328,2.80329 2.80328,6.77461 0,3.97131 -2.80328,6.54099 -2.56968,2.56968 -6.7746,2.56968 h -8.40986 q -2.33607,0 -2.33607,2.33607 v 21.95906 q 0,4.20492 1.40165,5.84017 1.63525,1.63525 3.97132,1.63525 0.93442,0 3.73771,-0.46721 2.80328,-0.70083 3.5041,-0.70083 3.73771,0 6.30739,2.80329 2.56968,2.80328 2.56968,6.7746 0,3.03689 -1.86886,5.60657 -1.63525,2.56968 -5.37296,3.73771 -3.03689,0.93443 -5.84017,1.40164 -2.80329,0.46722 -5.60657,0.46722 z"
         style="font-family:Dongle;-inkscape-font-specification:'Dongle Bold'"
         id="path3204" />
      <path
         d="m 755.89888,742.46327 q -15.88528,0 -26.8648,-9.34428 -10.74593,-9.57789 -10.74593,-26.16399 0,-17.28691 10.51232,-27.09841 10.74592,-9.81149 26.8648,-9.81149 11.44675,0 18.92217,4.20492 7.47542,4.20493 11.21314,10.74593 3.73771,6.54099 3.73771,13.78281 0,12.14756 -10.74592,12.14756 H 740.0136 q -1.86885,0 -1.86885,2.33607 0,5.37296 5.84017,8.64346 6.07379,3.03689 13.54921,3.03689 4.67214,0 9.34428,-1.16803 4.67214,-1.40164 8.17624,-3.97132 2.33607,-1.63525 4.90575,-1.63525 3.50411,0 5.84018,2.56968 2.56967,2.56967 2.56967,6.07378 0,4.20492 -4.43853,7.94264 -4.20493,3.5041 -12.38117,5.60656 -7.94264,2.10247 -15.65167,2.10247 z m 12.14756,-45.08615 q 0.46722,0 1.16804,-0.23361 0.93443,-0.23361 0.93443,-1.63525 0,-3.5041 -4.43854,-6.30739 -4.20492,-3.03689 -10.97952,-3.03689 -7.24182,0 -11.91396,3.2705 -4.43853,3.03689 -4.43853,6.30739 0,1.63525 1.86885,1.63525 z"
         style="font-family:Dongle;-inkscape-font-specification:'Dongle Bold'"
         id="path3206" />
    </g>
    <g
       id="g3186">
      <path
         id="path971"
         style="fill:#c4d9f5;stroke:#3250b0;stroke-width:24.0941;stroke-linecap:round;stroke-linejoin:round;stroke-miterlimit:4;stroke-dasharray:none"
         d="m 538.12236,323.89843 v 0 c 0,-60.3931 30.1695,-116.7938 80.4738,-150.3183 -70.6428,3.8412 -132.5918,48.6345 -158.2911,114.8458 -13.6006,3.5918 -27.92092,5.3549 -42.65332,5.3549 -14.7317,0 -29.052,-1.7631 -42.6532,-5.3549 -25.6994,-66.2113 -87.6483,-111.0046 -158.2911,-114.8452 50.3043,33.5239 80.4738,89.9252 80.4738,150.3177 v 0 c 0,31.0501 -8.0005,61.5762 -23.5599,88.4224 52.0632,33.1825 83.5825,90.6481 83.5825,152.3869 v 0 c 0,4.1797 -0.1445,8.3576 -0.4758,13.1391 17.6314,16.5448 38.2789,28.8298 60.7135,36.7616 22.4353,-7.9318 43.08212,-20.2168 60.71362,-36.7616 -0.3313,-4.7815 -0.4759,-8.9594 -0.4759,-13.1391 v 0 c 0,-61.7388 31.5193,-119.2044 83.7951,-152.3869 -15.3467,-26.8462 -23.3472,-57.3723 -23.3472,-88.4224 z"
         sodipodi:nodetypes="ssccsccsscsscccsscs" />
      <path
         style="fill:none;stroke:#f01d0a;stroke-width:24.0941;stroke-linecap:round;stroke-linejoin:round;stroke-miterlimit:4;stroke-dasharray:none"
         d="m 369.24304,364.13263 v 48.1882"
         id="path1244-3-3"
         sodipodi:nodetypes="cc" />
      <path
         style="fill:none;stroke:#f01d0a;stroke-width:24.0941;stroke-linecap:round;stroke-linejoin:round;stroke-miterlimit:4;stroke-dasharray:none"
         d="m 466.06046,364.13263 v 48.1882"
         id="path1244-5-6"
         sodipodi:nodetypes="cc" />
      <circle
         style="fill:#3250b0;stroke:none;stroke-width:24.0941;stroke-linecap:round;stroke-linejoin:round;stroke-miterlimit:4;stroke-dasharray:none"
         id="circle1152-5"
         cx="393.34509"
         cy="542.32532"
         r="12.047059" />
      <circle
         style="fill:#3250b0;stroke:none;stroke-width:24.0941;stroke-linecap:round;stroke-linejoin:round;stroke-miterlimit:4;stroke-dasharray:none"
         id="circle1154-6"
         cx="441.53333"
         cy="542.32532"
         r="12.047059" />
    </g>
  </g>
</svg>
