<?xml version="1.0" encoding="UTF-8" standalone="no"?>
<svg
   xmlns:dc="http://purl.org/dc/elements/1.1/"
   xmlns:cc="http://creativecommons.org/ns#"
   xmlns:rdf="http://www.w3.org/1999/02/22-rdf-syntax-ns#"
   xmlns:svg="http://www.w3.org/2000/svg"
   xmlns="http://www.w3.org/2000/svg"
   xmlns:sodipodi="http://sodipodi.sourceforge.net/DTD/sodipodi-0.dtd"
   xmlns:inkscape="http://www.inkscape.org/namespaces/inkscape"
   width="800"
   height="600"
   viewBox="0 0 800 600"
   version="1.1"
   id="svg4575"
   inkscape:version="1.0.2 (e86c870879, 2021-01-15)"
   sodipodi:docname="splash-screen.svg">
  <defs
     id="defs4569" />
  <sodipodi:namedview
     id="base"
     pagecolor="#ffffff"
     bordercolor="#666666"
     borderopacity="1.0"
     inkscape:pageopacity="0.0"
     inkscape:pageshadow="2"
     inkscape:zoom="0.49497475"
     inkscape:cx="478.77834"
     inkscape:cy="-292.075"
     inkscape:document-units="px"
     inkscape:current-layer="layer1"
     showgrid="false"
     units="px"
     inkscape:pagecheckerboard="true"
     inkscape:window-width="2408"
     inkscape:window-height="1411"
     inkscape:window-x="30"
     inkscape:window-y="0"
     inkscape:window-maximized="1"
     inkscape:document-rotation="0"
     borderlayer="true" />
  <metadata
     id="metadata4572">
    <rdf:RDF>
      <cc:Work
         rdf:about="">
        <dc:format>image/svg+xml</dc:format>
        <dc:type
           rdf:resource="http://purl.org/dc/dcmitype/StillImage" />
        <dc:title />
      </cc:Work>
    </rdf:RDF>
  </metadata>
  <g
     inkscape:label="ref"
     inkscape:groupmode="layer"
     id="layer1"
     transform="translate(0,-161.53332)">
    <g
       aria-label="Glaxnimate"
       id="text1446"
       style="font-weight:bold;font-size:153.869px;line-height:60%;font-family:'Baloo 2';-inkscape-font-specification:'Baloo 2 Bold';writing-mode:lr-tb;fill:#c4d9f5;stroke:#c4d9f5;stroke-width:12;stroke-linecap:round;stroke-linejoin:round;stroke-miterlimit:4;stroke-dasharray:none;paint-order:stroke fill markers">
      <path
         d="m 97.109534,728.76159 q 0,4.4622 -1.692559,6.61637 -1.692559,2.15417 -5.385415,4.30833 -2.154166,1.23095 -5.231546,2.30804 -3.07738,1.07708 -6.924105,1.84643 -3.692856,0.76934 -7.847319,1.23095 -4.000594,0.4616 -8.001189,0.4616 -11.078568,0 -20.618446,-2.76964 -9.386009,-2.92351 -16.463983,-8.9244 -7.077974,-6.00089 -11.078569,-15.23303 -4.0005936,-9.23214 -4.0005936,-22.15714 0,-12.15565 4.0005936,-21.38779 4.154464,-9.38601 11.078569,-15.54077 7.077974,-6.30863 16.463983,-9.38601 9.539878,-3.23125 20.464577,-3.23125 14.309818,0 22.772613,4.4622 8.462795,4.46221 8.462795,11.38631 0,3.53899 -1.846428,6.30863 -1.846428,2.61577 -4.308332,4.15446 -3.846725,-2.4619 -9.693747,-4.61607 -5.693153,-2.15416 -13.540472,-2.15416 -6.462499,0 -11.847914,2.15416 -5.231546,2.0003 -9.078271,5.84703 -3.846725,3.84672 -6.000891,9.386 -2.154166,5.53929 -2.154166,12.46339 0,7.53958 2.000297,13.23274 2.154166,5.53928 5.847022,9.23214 3.692856,3.69285 8.770533,5.53928 5.231546,1.84643 11.232437,1.84643 3.692857,0 6.616368,-0.76934 3.07738,-0.76935 4.769939,-1.53869 v -17.3872 H 56.180379 q -0.923214,-1.53869 -1.692559,-4.0006 -0.769345,-2.4619 -0.769345,-5.23154 0,-4.92381 2.308035,-7.23185 2.308035,-2.30803 6.000891,-2.30803 h 25.849993 q 4.308332,0 6.770236,2.4619 2.461904,2.30804 2.461904,6.61637 z"
         style="fill:#c4d9f5;stroke:#c4d9f5;stroke-width:12;stroke-miterlimit:4;stroke-dasharray:none;paint-order:stroke fill markers"
         id="path1448" />
      <path
         d="m 127.72923,743.99462 q -6.92411,0 -10.00149,-2.15416 -2.92351,-2.30804 -2.92351,-8.77053 v -90.32111 q 1.53869,-0.46161 4.30834,-0.92321 2.92351,-0.46161 6.30862,-0.46161 6.77024,0 9.84762,2.30803 3.07738,2.30804 3.07738,8.77054 v 90.3211 q -1.69256,0.46161 -4.4622,0.76935 -2.76964,0.4616 -6.15476,0.4616 z"
         style="fill:#c4d9f5;stroke:#c4d9f5;stroke-width:12;stroke-miterlimit:4;stroke-dasharray:none;paint-order:stroke fill markers"
         id="path1450" />
      <path
         d="m 187.2763,727.99225 q 3.38512,0 6.61637,-0.61548 3.38512,-0.76934 5.07768,-1.84643 V 711.3744 l -12.61726,1.07708 q -4.92381,0.46161 -8.00119,2.30803 -2.92351,1.69256 -2.92351,5.23155 0,3.69286 2.76964,5.84702 2.76964,2.15417 9.07827,2.15417 z m -0.92321,-61.39373 q 8.00119,0 14.46369,1.69255 6.61636,1.53869 11.23243,4.92381 4.61607,3.38512 7.07798,8.61667 2.61577,5.23154 2.61577,12.30952 v 34.77439 q 0,4.0006 -2.15417,6.4625 -2.00029,2.30804 -4.9238,4.00059 -4.76994,2.92352 -11.69405,4.46221 -6.9241,1.53869 -15.69464,1.53869 -15.8485,0 -25.23451,-6.0009 -9.38601,-6.15476 -9.38601,-18.61814 0,-10.61697 6.30863,-16.15625 6.30863,-5.53928 19.38749,-6.92411 l 20.46458,-2.15416 v -1.69256 q 0,-4.92381 -4.0006,-7.23184 -4.00059,-2.30804 -11.54017,-2.30804 -5.84702,0 -11.54018,1.38482 -5.53928,1.38482 -10.00148,3.23125 -1.84643,-1.23095 -3.23125,-3.69285 -1.23095,-2.61578 -1.23095,-5.53929 0,-6.77023 7.07797,-9.69375 4.4622,-1.69256 10.30922,-2.4619 6.0009,-0.92321 11.69405,-0.92321 z"
         style="fill:#c4d9f5;stroke:#c4d9f5;stroke-width:12;stroke-miterlimit:4;stroke-dasharray:none;paint-order:stroke fill markers"
         id="path1452" />
      <path
         d="m 241.89978,721.22201 q 3.38512,-4.00059 6.77024,-8.00119 3.38512,-4.15446 6.9241,-8.15505 l -21.08005,-25.38839 q 1.07708,-5.38541 4.30833,-8.61666 3.38512,-3.23125 8.15506,-3.23125 2.30803,0 4.00059,0.61547 1.69256,0.46161 3.07738,1.53869 1.53869,1.07709 2.76965,2.76965 1.38482,1.53869 2.92351,3.53898 l 11.07857,14.9253 17.54106,-23.23422 q 0.61548,-0.15387 1.23095,-0.15387 0.61548,0 1.07709,0 6.46249,0 10.30922,2.76964 3.84673,2.76964 3.84673,7.23184 0,3.53899 -1.69256,6.30863 -1.69256,2.76964 -6.15476,7.69345 l -12.00179,13.69434 20.92619,27.54256 q -0.76935,5.38541 -4.15446,8.46279 -3.38512,2.92351 -8.30893,2.92351 -5.07768,-0.15387 -8.30893,-2.92351 -3.07738,-2.92351 -6.15476,-7.23184 l -9.84761,-14.15595 -16.92559,23.84969 q -0.61548,0 -1.53869,0 -0.92322,0.15387 -1.53869,0.15387 -6.92411,0 -10.61697,-2.92351 -3.69285,-2.92351 -3.69285,-7.23184 0,-3.23125 1.53869,-5.69315 1.53869,-2.61578 5.53928,-7.07798 z"
         style="fill:#c4d9f5;stroke:#c4d9f5;stroke-width:12;stroke-miterlimit:4;stroke-dasharray:none;paint-order:stroke fill markers"
         id="path1454" />
      <path
         d="m 365.91809,695.67976 q 0,-5.38542 -3.23124,-8.00119 -3.23125,-2.61577 -8.61667,-2.61577 -3.69285,0 -6.77024,0.92321 -3.07738,0.92321 -5.69315,2.30804 v 54.46962 q -1.53869,0.46161 -4.30833,0.76935 -2.76964,0.4616 -6.15476,0.4616 -6.92411,0 -10.00149,-2.15416 -3.07738,-2.30804 -3.07738,-8.77053 V 685.5244 q 0,-4.00059 1.69256,-6.46249 1.69256,-2.46191 4.76994,-4.61607 4.92381,-3.53899 12.61726,-5.69316 7.84732,-2.15416 17.23333,-2.15416 16.77172,0 25.84999,7.38571 9.23214,7.38571 9.23214,21.08005 v 47.69939 q -1.69256,0.46161 -4.4622,0.76935 -2.76964,0.4616 -6.15476,0.4616 -6.9241,0 -10.00148,-2.15416 -2.92352,-2.30804 -2.92352,-8.77053 z"
         style="fill:#c4d9f5;stroke:#c4d9f5;stroke-width:12;stroke-miterlimit:4;stroke-dasharray:none;paint-order:stroke fill markers"
         id="path1456" />
      <path
         d="m 431.00465,742.76367 q -1.53869,0.46161 -4.30834,0.76935 -2.76964,0.4616 -6.15476,0.4616 -6.9241,0 -10.00148,-2.15416 -2.92351,-2.30804 -2.92351,-8.77053 v -63.24017 q 1.53869,-0.4616 4.30833,-0.92321 2.76964,-0.46161 6.15476,-0.46161 6.92411,0 9.84762,2.30804 3.07738,2.30803 3.07738,8.77053 z m -24.77291,-95.09104 q 0,-5.23155 3.53898,-8.9244 3.69286,-3.69286 9.53988,-3.69286 5.84702,0 9.38601,3.69286 3.69286,3.69285 3.69286,8.9244 0,5.38541 -3.69286,9.07827 -3.53899,3.69286 -9.38601,3.69286 -5.84702,0 -9.53988,-3.69286 -3.53898,-3.69286 -3.53898,-9.07827 z"
         style="fill:#c4d9f5;stroke:#c4d9f5;stroke-width:12;stroke-miterlimit:4;stroke-dasharray:none;paint-order:stroke fill markers"
         id="path1458" />
      <path
         d="m 561.02367,742.76367 q -1.69256,0.46161 -4.4622,0.76935 -2.76964,0.4616 -6.15476,0.4616 -6.92411,0 -10.00149,-2.15416 -2.92351,-2.30804 -2.92351,-8.77053 v -38.15952 q 0,-5.07767 -2.76964,-7.38571 -2.76964,-2.4619 -7.53958,-2.4619 -3.07738,0 -5.84702,1.07708 -2.61578,1.07708 -4.76994,2.76964 0.15387,0.76935 0.15387,1.53869 0.15386,0.76935 0.15386,1.53869 v 50.77677 q -1.69255,0.46161 -4.4622,0.76935 -2.76964,0.4616 -6.15476,0.4616 -6.9241,0 -10.00148,-2.15416 -2.92351,-2.30804 -2.92351,-8.77053 v -38.15952 q 0,-5.07767 -3.07738,-7.38571 -3.07738,-2.4619 -7.53958,-2.4619 -3.23125,0 -5.84703,1.07708 -2.61577,0.92321 -4.30833,1.84643 v 54.77736 q -1.53869,0.46161 -4.30833,0.76935 -2.76964,0.4616 -6.15476,0.4616 -6.92411,0 -10.00149,-2.15416 -3.07738,-2.30804 -3.07738,-8.77053 V 685.5244 q 0,-4.00059 1.69256,-6.46249 1.69256,-2.46191 4.76994,-4.61607 5.07768,-3.53899 12.46339,-5.69316 7.53958,-2.15416 15.69464,-2.15416 6.4625,0 12.15565,1.84642 5.84702,1.69256 10.61696,5.38542 4.61607,-3.07738 10.46309,-5.07768 5.84703,-2.15416 13.84821,-2.15416 6.0009,0 11.38631,1.53869 5.53929,1.38482 9.69375,4.76994 4.15446,3.23124 6.61637,8.61666 2.61577,5.23155 2.61577,12.77113 z"
         style="fill:#c4d9f5;stroke:#c4d9f5;stroke-width:12;stroke-miterlimit:4;stroke-dasharray:none;paint-order:stroke fill markers"
         id="path1460" />
      <path
         d="m 609.18464,727.99225 q 3.38512,0 6.61637,-0.61548 3.38512,-0.76934 5.07768,-1.84643 V 711.3744 l -12.61726,1.07708 q -4.92381,0.46161 -8.00119,2.30803 -2.92351,1.69256 -2.92351,5.23155 0,3.69286 2.76964,5.84702 2.76964,2.15417 9.07827,2.15417 z m -0.92321,-61.39373 q 8.00119,0 14.46369,1.69255 6.61636,1.53869 11.23243,4.92381 4.61607,3.38512 7.07798,8.61667 2.61577,5.23154 2.61577,12.30952 v 34.77439 q 0,4.0006 -2.15417,6.4625 -2.00029,2.30804 -4.9238,4.00059 -4.76994,2.92352 -11.69405,4.46221 -6.9241,1.53869 -15.69464,1.53869 -15.8485,0 -25.23451,-6.0009 -9.38601,-6.15476 -9.38601,-18.61814 0,-10.61697 6.30863,-16.15625 6.30863,-5.53928 19.38749,-6.92411 l 20.46458,-2.15416 v -1.69256 q 0,-4.92381 -4.0006,-7.23184 -4.00059,-2.30804 -11.54017,-2.30804 -5.84702,0 -11.54018,1.38482 -5.53928,1.38482 -10.00148,3.23125 -1.84643,-1.23095 -3.23125,-3.69285 -1.23095,-2.61578 -1.23095,-5.53929 0,-6.77023 7.07797,-9.69375 4.4622,-1.69256 10.30923,-2.4619 6.00089,-0.92321 11.69404,-0.92321 z"
         style="fill:#c4d9f5;stroke:#c4d9f5;stroke-width:12;stroke-miterlimit:4;stroke-dasharray:none;paint-order:stroke fill markers"
         id="path1462" />
      <path
         d="m 684.27269,718.45237 q 0,4.30833 2.76964,6.30863 2.76964,1.84643 7.69345,1.84643 2.30803,0 4.92381,-0.46161 2.61577,-0.61548 4.4622,-1.38482 1.38482,1.53869 2.30803,3.53899 0.92322,2.00029 0.92322,4.61607 0,5.38541 -4.30834,8.9244 -4.15446,3.38512 -14.61755,3.38512 -12.925,0 -20.15684,-5.84703 -7.23184,-6.00089 -7.23184,-19.38749 v -69.08718 q 1.69255,-0.46161 4.4622,-0.92322 2.76964,-0.61547 6.00089,-0.61547 6.77023,0 9.69375,2.4619 3.07738,2.30804 3.07738,8.61667 v 10.00148 h 21.23392 q 0.76934,1.53869 1.53869,4.0006 0.76934,2.30803 0.76934,4.9238 0,4.92381 -2.30803,7.07798 -2.15417,2.15416 -5.69316,2.15416 h -15.54076 z"
         style="fill:#c4d9f5;stroke:#c4d9f5;stroke-width:12;stroke-miterlimit:4;stroke-dasharray:none;paint-order:stroke fill markers"
         id="path1464" />
      <path
         d="m 740.12676,715.68273 q 2.15417,6.4625 7.53959,9.23214 5.38541,2.61577 12.46339,2.61577 6.46249,0 12.15565,-1.69256 5.69315,-1.84643 9.23214,-4.00059 2.30803,1.53869 3.84672,4.00059 1.53869,2.46191 1.53869,5.38542 0,3.53898 -2.15416,6.15476 -2.15417,2.61577 -6.0009,4.4622 -3.69285,1.69256 -8.9244,2.4619 -5.07767,0.92322 -11.23243,0.92322 -9.07828,0 -16.77173,-2.46191 -7.69345,-2.61577 -13.23273,-7.53958 -5.53928,-5.07768 -8.77053,-12.61726 -3.07738,-7.53958 -3.07738,-17.69493 0,-9.84762 3.07738,-17.07946 3.23125,-7.23184 8.46279,-12.00178 5.38542,-4.76994 12.15565,-6.92411 6.92411,-2.30803 14.15595,-2.30803 7.84732,0 14.30982,2.4619 6.61637,2.30803 11.23244,6.61637 4.76993,4.30833 7.38571,10.30922 2.61577,6.00089 2.61577,13.07887 0,4.9238 -2.61577,7.38571 -2.61578,2.4619 -7.38571,3.23125 z m 14.61756,-31.69702 q -6.61637,0 -11.07857,4.15447 -4.30833,4.00059 -5.07768,11.69404 l 29.38898,-4.76994 q -0.30773,-4.00059 -3.53898,-7.53958 -3.23125,-3.53899 -9.69375,-3.53899 z"
         style="fill:#c4d9f5;stroke:#c4d9f5;stroke-width:12;stroke-miterlimit:4;stroke-dasharray:none;paint-order:stroke fill markers"
         id="path1466" />
    </g>
    <g
       aria-label="Glaxnimate"
       id="g867"
       style="font-weight:bold;font-size:153.869px;line-height:60%;font-family:'Baloo 2';-inkscape-font-specification:'Baloo 2 Bold';writing-mode:lr-tb;fill:#292f75;stroke:none;stroke-width:12;stroke-linecap:round;stroke-linejoin:round;stroke-miterlimit:4;stroke-dasharray:none;paint-order:stroke fill markers">
      <path
         d="m 97.109534,728.76159 q 0,4.4622 -1.692559,6.61637 -1.692559,2.15417 -5.385415,4.30833 -2.154166,1.23095 -5.231546,2.30804 -3.07738,1.07708 -6.924105,1.84643 -3.692856,0.76934 -7.847319,1.23095 -4.000594,0.4616 -8.001189,0.4616 -11.078568,0 -20.618446,-2.76964 -9.386009,-2.92351 -16.463983,-8.9244 -7.077974,-6.00089 -11.078569,-15.23303 -4.0005936,-9.23214 -4.0005936,-22.15714 0,-12.15565 4.0005936,-21.38779 4.154464,-9.38601 11.078569,-15.54077 7.077974,-6.30863 16.463983,-9.38601 9.539878,-3.23125 20.464577,-3.23125 14.309818,0 22.772613,4.4622 8.462795,4.46221 8.462795,11.38631 0,3.53899 -1.846428,6.30863 -1.846428,2.61577 -4.308332,4.15446 -3.846725,-2.4619 -9.693747,-4.61607 -5.693153,-2.15416 -13.540472,-2.15416 -6.462499,0 -11.847914,2.15416 -5.231546,2.0003 -9.078271,5.84703 -3.846725,3.84672 -6.000891,9.386 -2.154166,5.53929 -2.154166,12.46339 0,7.53958 2.000297,13.23274 2.154166,5.53928 5.847022,9.23214 3.692856,3.69285 8.770533,5.53928 5.231546,1.84643 11.232437,1.84643 3.692857,0 6.616368,-0.76934 3.07738,-0.76935 4.769939,-1.53869 v -17.3872 H 56.180379 q -0.923214,-1.53869 -1.692559,-4.0006 -0.769345,-2.4619 -0.769345,-5.23154 0,-4.92381 2.308035,-7.23185 2.308035,-2.30803 6.000891,-2.30803 h 25.849993 q 4.308332,0 6.770236,2.4619 2.461904,2.30804 2.461904,6.61637 z"
         style="fill:#292f75;stroke:none;stroke-width:12;stroke-miterlimit:4;stroke-dasharray:none;paint-order:stroke fill markers"
         id="path847" />
      <path
         d="m 127.72923,743.99462 q -6.92411,0 -10.00149,-2.15416 -2.92351,-2.30804 -2.92351,-8.77053 v -90.32111 q 1.53869,-0.46161 4.30834,-0.92321 2.92351,-0.46161 6.30862,-0.46161 6.77024,0 9.84762,2.30803 3.07738,2.30804 3.07738,8.77054 v 90.3211 q -1.69256,0.46161 -4.4622,0.76935 -2.76964,0.4616 -6.15476,0.4616 z"
         style="fill:#292f75;stroke:none;stroke-width:12;stroke-miterlimit:4;stroke-dasharray:none;paint-order:stroke fill markers"
         id="path849" />
      <path
         d="m 187.2763,727.99225 q 3.38512,0 6.61637,-0.61548 3.38512,-0.76934 5.07768,-1.84643 V 711.3744 l -12.61726,1.07708 q -4.92381,0.46161 -8.00119,2.30803 -2.92351,1.69256 -2.92351,5.23155 0,3.69286 2.76964,5.84702 2.76964,2.15417 9.07827,2.15417 z m -0.92321,-61.39373 q 8.00119,0 14.46369,1.69255 6.61636,1.53869 11.23243,4.92381 4.61607,3.38512 7.07798,8.61667 2.61577,5.23154 2.61577,12.30952 v 34.77439 q 0,4.0006 -2.15417,6.4625 -2.00029,2.30804 -4.9238,4.00059 -4.76994,2.92352 -11.69405,4.46221 -6.9241,1.53869 -15.69464,1.53869 -15.8485,0 -25.23451,-6.0009 -9.38601,-6.15476 -9.38601,-18.61814 0,-10.61697 6.30863,-16.15625 6.30863,-5.53928 19.38749,-6.92411 l 20.46458,-2.15416 v -1.69256 q 0,-4.92381 -4.0006,-7.23184 -4.00059,-2.30804 -11.54017,-2.30804 -5.84702,0 -11.54018,1.38482 -5.53928,1.38482 -10.00148,3.23125 -1.84643,-1.23095 -3.23125,-3.69285 -1.23095,-2.61578 -1.23095,-5.53929 0,-6.77023 7.07797,-9.69375 4.4622,-1.69256 10.30922,-2.4619 6.0009,-0.92321 11.69405,-0.92321 z"
         style="fill:#292f75;stroke:none;stroke-width:12;stroke-miterlimit:4;stroke-dasharray:none;paint-order:stroke fill markers"
         id="path851" />
      <path
         d="m 241.89978,721.22201 q 3.38512,-4.00059 6.77024,-8.00119 3.38512,-4.15446 6.9241,-8.15505 l -21.08005,-25.38839 q 1.07708,-5.38541 4.30833,-8.61666 3.38512,-3.23125 8.15506,-3.23125 2.30803,0 4.00059,0.61547 1.69256,0.46161 3.07738,1.53869 1.53869,1.07709 2.76965,2.76965 1.38482,1.53869 2.92351,3.53898 l 11.07857,14.9253 17.54106,-23.23422 q 0.61548,-0.15387 1.23095,-0.15387 0.61548,0 1.07709,0 6.46249,0 10.30922,2.76964 3.84673,2.76964 3.84673,7.23184 0,3.53899 -1.69256,6.30863 -1.69256,2.76964 -6.15476,7.69345 l -12.00179,13.69434 20.92619,27.54256 q -0.76935,5.38541 -4.15446,8.46279 -3.38512,2.92351 -8.30893,2.92351 -5.07768,-0.15387 -8.30893,-2.92351 -3.07738,-2.92351 -6.15476,-7.23184 l -9.84761,-14.15595 -16.92559,23.84969 q -0.61548,0 -1.53869,0 -0.92322,0.15387 -1.53869,0.15387 -6.92411,0 -10.61697,-2.92351 -3.69285,-2.92351 -3.69285,-7.23184 0,-3.23125 1.53869,-5.69315 1.53869,-2.61578 5.53928,-7.07798 z"
         style="fill:#292f75;stroke:none;stroke-width:12;stroke-miterlimit:4;stroke-dasharray:none;paint-order:stroke fill markers"
         id="path853" />
      <path
         d="m 365.91809,695.67976 q 0,-5.38542 -3.23124,-8.00119 -3.23125,-2.61577 -8.61667,-2.61577 -3.69285,0 -6.77024,0.92321 -3.07738,0.92321 -5.69315,2.30804 v 54.46962 q -1.53869,0.46161 -4.30833,0.76935 -2.76964,0.4616 -6.15476,0.4616 -6.92411,0 -10.00149,-2.15416 -3.07738,-2.30804 -3.07738,-8.77053 V 685.5244 q 0,-4.00059 1.69256,-6.46249 1.69256,-2.46191 4.76994,-4.61607 4.92381,-3.53899 12.61726,-5.69316 7.84732,-2.15416 17.23333,-2.15416 16.77172,0 25.84999,7.38571 9.23214,7.38571 9.23214,21.08005 v 47.69939 q -1.69256,0.46161 -4.4622,0.76935 -2.76964,0.4616 -6.15476,0.4616 -6.9241,0 -10.00148,-2.15416 -2.92352,-2.30804 -2.92352,-8.77053 z"
         style="fill:#292f75;stroke:none;stroke-width:12;stroke-miterlimit:4;stroke-dasharray:none;paint-order:stroke fill markers"
         id="path855" />
      <path
         d="m 431.00465,742.76367 q -1.53869,0.46161 -4.30834,0.76935 -2.76964,0.4616 -6.15476,0.4616 -6.9241,0 -10.00148,-2.15416 -2.92351,-2.30804 -2.92351,-8.77053 v -63.24017 q 1.53869,-0.4616 4.30833,-0.92321 2.76964,-0.46161 6.15476,-0.46161 6.92411,0 9.84762,2.30804 3.07738,2.30803 3.07738,8.77053 z m -24.77291,-95.09104 q 0,-5.23155 3.53898,-8.9244 3.69286,-3.69286 9.53988,-3.69286 5.84702,0 9.38601,3.69286 3.69286,3.69285 3.69286,8.9244 0,5.38541 -3.69286,9.07827 -3.53899,3.69286 -9.38601,3.69286 -5.84702,0 -9.53988,-3.69286 -3.53898,-3.69286 -3.53898,-9.07827 z"
         style="fill:#292f75;stroke:none;stroke-width:12;stroke-miterlimit:4;stroke-dasharray:none;paint-order:stroke fill markers"
         id="path857" />
      <path
         d="m 561.02367,742.76367 q -1.69256,0.46161 -4.4622,0.76935 -2.76964,0.4616 -6.15476,0.4616 -6.92411,0 -10.00149,-2.15416 -2.92351,-2.30804 -2.92351,-8.77053 v -38.15952 q 0,-5.07767 -2.76964,-7.38571 -2.76964,-2.4619 -7.53958,-2.4619 -3.07738,0 -5.84702,1.07708 -2.61578,1.07708 -4.76994,2.76964 0.15387,0.76935 0.15387,1.53869 0.15386,0.76935 0.15386,1.53869 v 50.77677 q -1.69255,0.46161 -4.4622,0.76935 -2.76964,0.4616 -6.15476,0.4616 -6.9241,0 -10.00148,-2.15416 -2.92351,-2.30804 -2.92351,-8.77053 v -38.15952 q 0,-5.07767 -3.07738,-7.38571 -3.07738,-2.4619 -7.53958,-2.4619 -3.23125,0 -5.84703,1.07708 -2.61577,0.92321 -4.30833,1.84643 v 54.77736 q -1.53869,0.46161 -4.30833,0.76935 -2.76964,0.4616 -6.15476,0.4616 -6.92411,0 -10.00149,-2.15416 -3.07738,-2.30804 -3.07738,-8.77053 V 685.5244 q 0,-4.00059 1.69256,-6.46249 1.69256,-2.46191 4.76994,-4.61607 5.07768,-3.53899 12.46339,-5.69316 7.53958,-2.15416 15.69464,-2.15416 6.4625,0 12.15565,1.84642 5.84702,1.69256 10.61696,5.38542 4.61607,-3.07738 10.46309,-5.07768 5.84703,-2.15416 13.84821,-2.15416 6.0009,0 11.38631,1.53869 5.53929,1.38482 9.69375,4.76994 4.15446,3.23124 6.61637,8.61666 2.61577,5.23155 2.61577,12.77113 z"
         style="fill:#292f75;stroke:none;stroke-width:12;stroke-miterlimit:4;stroke-dasharray:none;paint-order:stroke fill markers"
         id="path859" />
      <path
         d="m 609.18464,727.99225 q 3.38512,0 6.61637,-0.61548 3.38512,-0.76934 5.07768,-1.84643 V 711.3744 l -12.61726,1.07708 q -4.92381,0.46161 -8.00119,2.30803 -2.92351,1.69256 -2.92351,5.23155 0,3.69286 2.76964,5.84702 2.76964,2.15417 9.07827,2.15417 z m -0.92321,-61.39373 q 8.00119,0 14.46369,1.69255 6.61636,1.53869 11.23243,4.92381 4.61607,3.38512 7.07798,8.61667 2.61577,5.23154 2.61577,12.30952 v 34.77439 q 0,4.0006 -2.15417,6.4625 -2.00029,2.30804 -4.9238,4.00059 -4.76994,2.92352 -11.69405,4.46221 -6.9241,1.53869 -15.69464,1.53869 -15.8485,0 -25.23451,-6.0009 -9.38601,-6.15476 -9.38601,-18.61814 0,-10.61697 6.30863,-16.15625 6.30863,-5.53928 19.38749,-6.92411 l 20.46458,-2.15416 v -1.69256 q 0,-4.92381 -4.0006,-7.23184 -4.00059,-2.30804 -11.54017,-2.30804 -5.84702,0 -11.54018,1.38482 -5.53928,1.38482 -10.00148,3.23125 -1.84643,-1.23095 -3.23125,-3.69285 -1.23095,-2.61578 -1.23095,-5.53929 0,-6.77023 7.07797,-9.69375 4.4622,-1.69256 10.30923,-2.4619 6.00089,-0.92321 11.69404,-0.92321 z"
         style="fill:#292f75;stroke:none;stroke-width:12;stroke-miterlimit:4;stroke-dasharray:none;paint-order:stroke fill markers"
         id="path861" />
      <path
         d="m 684.27269,718.45237 q 0,4.30833 2.76964,6.30863 2.76964,1.84643 7.69345,1.84643 2.30803,0 4.92381,-0.46161 2.61577,-0.61548 4.4622,-1.38482 1.38482,1.53869 2.30803,3.53899 0.92322,2.00029 0.92322,4.61607 0,5.38541 -4.30834,8.9244 -4.15446,3.38512 -14.61755,3.38512 -12.925,0 -20.15684,-5.84703 -7.23184,-6.00089 -7.23184,-19.38749 v -69.08718 q 1.69255,-0.46161 4.4622,-0.92322 2.76964,-0.61547 6.00089,-0.61547 6.77023,0 9.69375,2.4619 3.07738,2.30804 3.07738,8.61667 v 10.00148 h 21.23392 q 0.76934,1.53869 1.53869,4.0006 0.76934,2.30803 0.76934,4.9238 0,4.92381 -2.30803,7.07798 -2.15417,2.15416 -5.69316,2.15416 h -15.54076 z"
         style="fill:#292f75;stroke:none;stroke-width:12;stroke-miterlimit:4;stroke-dasharray:none;paint-order:stroke fill markers"
         id="path863" />
      <path
         d="m 740.12676,715.68273 q 2.15417,6.4625 7.53959,9.23214 5.38541,2.61577 12.46339,2.61577 6.46249,0 12.15565,-1.69256 5.69315,-1.84643 9.23214,-4.00059 2.30803,1.53869 3.84672,4.00059 1.53869,2.46191 1.53869,5.38542 0,3.53898 -2.15416,6.15476 -2.15417,2.61577 -6.0009,4.4622 -3.69285,1.69256 -8.9244,2.4619 -5.07767,0.92322 -11.23243,0.92322 -9.07828,0 -16.77173,-2.46191 -7.69345,-2.61577 -13.23273,-7.53958 -5.53928,-5.07768 -8.77053,-12.61726 -3.07738,-7.53958 -3.07738,-17.69493 0,-9.84762 3.07738,-17.07946 3.23125,-7.23184 8.46279,-12.00178 5.38542,-4.76994 12.15565,-6.92411 6.92411,-2.30803 14.15595,-2.30803 7.84732,0 14.30982,2.4619 6.61637,2.30803 11.23244,6.61637 4.76993,4.30833 7.38571,10.30922 2.61577,6.00089 2.61577,13.07887 0,4.9238 -2.61577,7.38571 -2.61578,2.4619 -7.38571,3.23125 z m 14.61756,-31.69702 q -6.61637,0 -11.07857,4.15447 -4.30833,4.00059 -5.07768,11.69404 l 29.38898,-4.76994 q -0.30773,-4.00059 -3.53898,-7.53958 -3.23125,-3.53899 -9.69375,-3.53899 z"
         style="fill:#292f75;stroke:none;stroke-width:12;stroke-miterlimit:4;stroke-dasharray:none;paint-order:stroke fill markers"
         id="path865" />
    </g>
    <path
       id="path971"
       style="fill:#c4d9f5;stroke:#3250b0;stroke-width:24.0941;stroke-linecap:round;stroke-linejoin:round;stroke-miterlimit:4;stroke-dasharray:none"
       d="m 538.12236,323.89843 v 0 c 0,-60.3931 30.1695,-116.7938 80.4738,-150.3183 -70.6428,3.8412 -132.5918,48.6345 -158.2911,114.8458 -13.6006,3.5918 -27.92092,5.3549 -42.65332,5.3549 -14.7317,0 -29.052,-1.7631 -42.6532,-5.3549 -25.6994,-66.2113 -87.6483,-111.0046 -158.2911,-114.8452 50.3043,33.5239 80.4738,89.9252 80.4738,150.3177 v 0 c 0,31.0501 -8.0005,61.5762 -23.5599,88.4224 52.0632,33.1825 83.5825,90.6481 83.5825,152.3869 v 0 c 0,4.1797 -0.1445,8.3576 -0.4758,13.1391 17.6314,16.5448 38.2789,28.8298 60.7135,36.7616 22.4353,-7.9318 43.08212,-20.2168 60.71362,-36.7616 -0.3313,-4.7815 -0.4759,-8.9594 -0.4759,-13.1391 v 0 c 0,-61.7388 31.5193,-119.2044 83.7951,-152.3869 -15.3467,-26.8462 -23.3472,-57.3723 -23.3472,-88.4224 z"
       sodipodi:nodetypes="ssccsccsscsscccsscs" />
    <path
       style="fill:none;stroke:#f01d0a;stroke-width:24.0941;stroke-linecap:round;stroke-linejoin:round;stroke-miterlimit:4;stroke-dasharray:none"
       d="m 369.24304,364.13263 v 48.1882"
       id="path1244-3-3"
       sodipodi:nodetypes="cc" />
    <path
       style="fill:none;stroke:#f01d0a;stroke-width:24.0941;stroke-linecap:round;stroke-linejoin:round;stroke-miterlimit:4;stroke-dasharray:none"
       d="m 466.06046,364.13263 v 48.1882"
       id="path1244-5-6"
       sodipodi:nodetypes="cc" />
    <circle
       style="fill:#3250b0;stroke:none;stroke-width:24.0941;stroke-linecap:round;stroke-linejoin:round;stroke-miterlimit:4;stroke-dasharray:none"
       id="circle1152-5"
       cx="393.34509"
       cy="542.32532"
       r="12.047059" />
    <circle
       style="fill:#3250b0;stroke:none;stroke-width:24.0941;stroke-linecap:round;stroke-linejoin:round;stroke-miterlimit:4;stroke-dasharray:none"
       id="circle1154-6"
       cx="441.53333"
       cy="542.32532"
       r="12.047059" />
  </g>
</svg>
