<?xml version="1.0" encoding="UTF-8" standalone="no"?>
<svg
   xmlns="http://www.w3.org/2000/svg"
   width="166.1562"
   height="166.1875"
   viewBox="0 0 166.1562 166.1875"
   version="1.1"
>
  <path
     d="m 83.0625,0 c -7.39687,18.13516 -11.8583,29.99768 -20.09375,47.59375 5.04936,5.35232 11.24722,11.58536 21.3125,18.625 C 73.46008,61.7659 66.07872,57.29535 60.5625,52.65625 50.0227,74.64916 33.50987,105.97709 0,166.1875 26.33763,150.98233 46.75409,141.60818 65.78125,138.03125 64.96422,134.5172 64.4997,130.71607 64.53125,126.75 l 0.0312,-0.84375 c 0.41792,-16.87382 9.19567,-29.84979 19.59375,-28.96875 10.39809,0.88104 18.48041,15.28242 18.0625,32.15625 -0.0786,3.17512 -0.43674,6.22955 -1.0625,9.0625 18.82058,3.68164 39.01873,13.03179 65,28.03125 -5.123,-9.4318 -9.69572,-17.93388 -14.0625,-26.03125 -6.87839,-5.33121 -14.05289,-12.2698 -28.6875,-19.78125 10.05899,2.61375 17.2611,5.62932 22.875,9 C 101.88292,46.71316 98.28761,35.72911 83.06245,0 Z"
     id="path2518"
     style="fill:#343838;fill-opacity:1;fill-rule:evenodd;stroke:none" />
</svg>
